<svg id="mermaid-_r_4c_-1" width="2388.02099609375" xmlns="http://www.w3.org/2000/svg" class="classDiagram" style="max-width: none; height: 1322.3px; max-height: none; width: 2388.02px;" viewBox="0 0.000003814697265625 2388.02099609375 1322.2999267578125" role="graphics-document document" aria-roledescription="class" height="1322.2999267578125"><rect x="0" y="0.000003814697265625" width="2388.02099609375" height="1322.2999267578125" fill="rgb(255, 255, 255)"></rect><style>#mermaid-_r_4c_-1{font-family:-apple-system,BlinkMacSystemFont,"Segoe UI",sans-serif;font-size:16px;fill:rgb(26, 28, 31);}@keyframes edge-animation-frame{from{stroke-dashoffset:0;}}@keyframes dash{to{stroke-dashoffset:0;}}#mermaid-_r_4c_-1 .edge-animation-slow{stroke-dasharray:9,5!important;stroke-dashoffset:900;animation:dash 50s linear infinite;stroke-linecap:round;}#mermaid-_r_4c_-1 .edge-animation-fast{stroke-dasharray:9,5!important;stroke-dashoffset:900;animation:dash 20s linear infinite;stroke-linecap:round;}#mermaid-_r_4c_-1 .error-icon{fill:rgba(26, 28, 31, 0.047);}#mermaid-_r_4c_-1 .error-text{fill:rgba(26, 28, 31, 0.494);stroke:rgba(26, 28, 31, 0.494);}#mermaid-_r_4c_-1 .edge-thickness-normal{stroke-width:1px;}#mermaid-_r_4c_-1 .edge-thickness-thick{stroke-width:3.5px;}#mermaid-_r_4c_-1 .edge-pattern-solid{stroke-dasharray:0;}#mermaid-_r_4c_-1 .edge-thickness-invisible{stroke-width:0;fill:none;}#mermaid-_r_4c_-1 .edge-pattern-dashed{stroke-dasharray:3;}#mermaid-_r_4c_-1 .edge-pattern-dotted{stroke-dasharray:2;}#mermaid-_r_4c_-1 .marker{fill:color(srgb 0.101961 0.109804 0.121569 / 0.7);stroke:color(srgb 0.101961 0.109804 0.121569 / 0.7);}#mermaid-_r_4c_-1 .marker.cross{stroke:color(srgb 0.101961 0.109804 0.121569 / 0.7);}#mermaid-_r_4c_-1 svg{font-family:-apple-system,BlinkMacSystemFont,"Segoe UI",sans-serif;font-size:16px;}#mermaid-_r_4c_-1 p{margin:0;}#mermaid-_r_4c_-1 g.classGroup text{fill:rgba(26, 28, 31, 0.118);stroke:none;font-family:-apple-system,BlinkMacSystemFont,"Segoe UI",sans-serif;font-size:10px;}#mermaid-_r_4c_-1 g.classGroup text .title{font-weight:bolder;}#mermaid-_r_4c_-1 .nodeLabel,#mermaid-_r_4c_-1 .edgeLabel{color:rgb(26, 28, 31);}#mermaid-_r_4c_-1 .edgeLabel .label rect{fill:rgba(255, 255, 255, 0.96);}#mermaid-_r_4c_-1 .label text{fill:rgb(26, 28, 31);}#mermaid-_r_4c_-1 .labelBkg{background:rgba(255, 255, 255, 0.96);}#mermaid-_r_4c_-1 .edgeLabel .label span{background:rgba(255, 255, 255, 0.96);}#mermaid-_r_4c_-1 .classTitle{font-weight:bolder;}#mermaid-_r_4c_-1 .node rect,#mermaid-_r_4c_-1 .node circle,#mermaid-_r_4c_-1 .node ellipse,#mermaid-_r_4c_-1 .node polygon,#mermaid-_r_4c_-1 .node path{fill:rgba(255, 255, 255, 0.96);stroke:rgba(26, 28, 31, 0.118);stroke-width:1px;}#mermaid-_r_4c_-1 .divider{stroke:rgba(26, 28, 31, 0.118);stroke-width:1;}#mermaid-_r_4c_-1 g.clickable{cursor:pointer;}#mermaid-_r_4c_-1 g.classGroup rect{fill:rgba(255, 255, 255, 0.96);stroke:rgba(26, 28, 31, 0.118);}#mermaid-_r_4c_-1 g.classGroup line{stroke:rgba(26, 28, 31, 0.118);stroke-width:1;}#mermaid-_r_4c_-1 .classLabel .box{stroke:none;stroke-width:0;fill:rgba(255, 255, 255, 0.96);opacity:0.5;}#mermaid-_r_4c_-1 .classLabel .label{fill:rgba(26, 28, 31, 0.118);font-size:10px;}#mermaid-_r_4c_-1 .relation{stroke:color(srgb 0.101961 0.109804 0.121569 / 0.7);stroke-width:1;fill:none;}#mermaid-_r_4c_-1 .dashed-line{stroke-dasharray:3;}#mermaid-_r_4c_-1 .dotted-line{stroke-dasharray:1 2;}#mermaid-_r_4c_-1 #compositionStart,#mermaid-_r_4c_-1 .composition{fill:color(srgb 0.101961 0.109804 0.121569 / 0.7)!important;stroke:color(srgb 0.101961 0.109804 0.121569 / 0.7)!important;stroke-width:1;}#mermaid-_r_4c_-1 #compositionEnd,#mermaid-_r_4c_-1 .composition{fill:color(srgb 0.101961 0.109804 0.121569 / 0.7)!important;stroke:color(srgb 0.101961 0.109804 0.121569 / 0.7)!important;stroke-width:1;}#mermaid-_r_4c_-1 #dependencyStart,#mermaid-_r_4c_-1 .dependency{fill:color(srgb 0.101961 0.109804 0.121569 / 0.7)!important;stroke:color(srgb 0.101961 0.109804 0.121569 / 0.7)!important;stroke-width:1;}#mermaid-_r_4c_-1 #dependencyStart,#mermaid-_r_4c_-1 .dependency{fill:color(srgb 0.101961 0.109804 0.121569 / 0.7)!important;stroke:color(srgb 0.101961 0.109804 0.121569 / 0.7)!important;stroke-width:1;}#mermaid-_r_4c_-1 #extensionStart,#mermaid-_r_4c_-1 .extension{fill:transparent!important;stroke:color(srgb 0.101961 0.109804 0.121569 / 0.7)!important;stroke-width:1;}#mermaid-_r_4c_-1 #extensionEnd,#mermaid-_r_4c_-1 .extension{fill:transparent!important;stroke:color(srgb 0.101961 0.109804 0.121569 / 0.7)!important;stroke-width:1;}#mermaid-_r_4c_-1 #aggregationStart,#mermaid-_r_4c_-1 .aggregation{fill:transparent!important;stroke:color(srgb 0.101961 0.109804 0.121569 / 0.7)!important;stroke-width:1;}#mermaid-_r_4c_-1 #aggregationEnd,#mermaid-_r_4c_-1 .aggregation{fill:transparent!important;stroke:color(srgb 0.101961 0.109804 0.121569 / 0.7)!important;stroke-width:1;}#mermaid-_r_4c_-1 #lollipopStart,#mermaid-_r_4c_-1 .lollipop{fill:rgba(255, 255, 255, 0.96)!important;stroke:color(srgb 0.101961 0.109804 0.121569 / 0.7)!important;stroke-width:1;}#mermaid-_r_4c_-1 #lollipopEnd,#mermaid-_r_4c_-1 .lollipop{fill:rgba(255, 255, 255, 0.96)!important;stroke:color(srgb 0.101961 0.109804 0.121569 / 0.7)!important;stroke-width:1;}#mermaid-_r_4c_-1 .edgeTerminals{font-size:11px;line-height:initial;}#mermaid-_r_4c_-1 .classTitleText{text-anchor:middle;font-size:18px;fill:rgb(26, 28, 31);}#mermaid-_r_4c_-1 .label-icon{display:inline-block;height:1em;overflow:visible;vertical-align:-0.125em;}#mermaid-_r_4c_-1 .node .label-icon path{fill:currentColor;stroke:revert;stroke-width:revert;}#mermaid-_r_4c_-1 .edgeLabel .label rect{fill:var(--mermaid-surface-background);opacity:1;}#mermaid-_r_4c_-1 :root{--mermaid-font-family:-apple-system,BlinkMacSystemFont,"Segoe UI",sans-serif;}</style><g><defs><marker id="mermaid-_r_4c_-1_class-aggregationStart" class="marker aggregation class" refX="18" refY="7" markerWidth="190" markerHeight="240" orient="auto"><path d="M 18,7 L9,13 L1,7 L9,1 Z"></path></marker></defs><defs><marker id="mermaid-_r_4c_-1_class-aggregationEnd" class="marker aggregation class" refX="1" refY="7" markerWidth="20" markerHeight="28" orient="auto"><path d="M 18,7 L9,13 L1,7 L9,1 Z"></path></marker></defs><defs><marker id="mermaid-_r_4c_-1_class-extensionStart" class="marker extension class" refX="18" refY="7" markerWidth="190" markerHeight="240" orient="auto"><path d="M 1,7 L18,13 V 1 Z"></path></marker></defs><defs><marker id="mermaid-_r_4c_-1_class-extensionEnd" class="marker extension class" refX="1" refY="7" markerWidth="20" markerHeight="28" orient="auto"><path d="M 1,1 V 13 L18,7 Z"></path></marker></defs><defs><marker id="mermaid-_r_4c_-1_class-compositionStart" class="marker composition class" refX="18" refY="7" markerWidth="190" markerHeight="240" orient="auto"><path d="M 18,7 L9,13 L1,7 L9,1 Z"></path></marker></defs><defs><marker id="mermaid-_r_4c_-1_class-compositionEnd" class="marker composition class" refX="1" refY="7" markerWidth="20" markerHeight="28" orient="auto"><path d="M 18,7 L9,13 L1,7 L9,1 Z"></path></marker></defs><defs><marker id="mermaid-_r_4c_-1_class-dependencyStart" class="marker dependency class" refX="6" refY="7" markerWidth="190" markerHeight="240" orient="auto"><path d="M 5,7 L9,13 L1,7 L9,1 Z"></path></marker></defs><defs><marker id="mermaid-_r_4c_-1_class-dependencyEnd" class="marker dependency class" refX="13" refY="7" markerWidth="20" markerHeight="28" orient="auto"><path d="M 18,7 L9,13 L14,7 L9,1 Z"></path></marker></defs><defs><marker id="mermaid-_r_4c_-1_class-lollipopStart" class="marker lollipop class" refX="13" refY="7" markerWidth="190" markerHeight="240" orient="auto"><circle stroke="black" fill="transparent" cx="7" cy="7" r="6"></circle></marker></defs><defs><marker id="mermaid-_r_4c_-1_class-lollipopEnd" class="marker lollipop class" refX="1" refY="7" markerWidth="190" markerHeight="240" orient="auto"><circle stroke="black" fill="transparent" cx="7" cy="7" r="6"></circle></marker></defs><g class="root"><g class="clusters"></g><g class="edgePaths"><path d="M270.921,888.5L300.625,829.033C330.33,769.567,389.739,650.633,422.61,591.167C455.481,531.7,461.814,531.7,464.981,531.7L468.148,531.7" id="id_SwapRequestController_SwapRequestService_1" class="edge-thickness-normal edge-pattern-solid relation" style=";;;" data-edge="true" data-et="edge" data-id="id_SwapRequestController_SwapRequestService_1" data-points="W3sieCI6MjcwLjkyMDYxNTM4NTY1NywieSI6ODg4LjUwMDAxMzM1MTQ0MDR9LHsieCI6NDQ5LjE0NzY3NDU2MDU0NjksInkiOjUzMS43MDAwMTYwMjE3Mjg1fSx7IngiOjQ3NC4xNDc2NzQ1NjA1NDY5LCJ5Ijo1MzEuNzAwMDE2MDIxNzI4NX1d" marker-end="url(#mermaid-_r_4c_-1_class-dependencyEnd)"></path><path d="M835.545,531.7L836.836,531.7C838.128,531.7,840.711,531.7,846.17,531.7C851.628,531.7,859.961,531.7,864.128,531.7L868.295,531.7" id="id_SwapRequestService_SwapRequestServiceImpl_2" class="edge-thickness-normal edge-pattern-dashed relation" style=";;;" data-edge="true" data-et="edge" data-id="id_SwapRequestService_SwapRequestServiceImpl_2" data-points="W3sieCI6ODE4LjI5NDU1NTY2NDA2MjUsInkiOjUzMS43MDAwMTYwMjE3Mjg1fSx7IngiOjg0My4yOTQ1NTU2NjQwNjI1LCJ5Ijo1MzEuNzAwMDE2MDIxNzI4NX0seyJ4Ijo4NjguMjk0NTU1NjY0MDYyNSwieSI6NTMxLjcwMDAxNjAyMTcyODV9XQ==" marker-start="url(#mermaid-_r_4c_-1_class-extensionStart)"></path><path d="M1096.697,421.9L1122.993,361.517C1149.288,301.133,1201.879,180.367,1254.45,119.983C1307.022,59.6,1359.574,59.6,1412.126,59.6C1464.678,59.6,1517.23,59.6,1570.168,59.6C1623.106,59.6,1676.43,59.6,1729.754,59.6C1783.077,59.6,1836.401,59.6,1869.018,59.6C1901.635,59.6,1913.545,59.6,1919.5,59.6L1925.455,59.6" id="id_SwapRequestServiceImpl_EmployeeRepository_3" class="edge-thickness-normal edge-pattern-solid relation" style=";;;" data-edge="true" data-et="edge" data-id="id_SwapRequestServiceImpl_EmployeeRepository_3" data-points="W3sieCI6MTA5Ni42OTcxNjA2MTQ5Mzc3LCJ5Ijo0MjEuOTAwMDIwNTk5MzY1MjN9LHsieCI6MTI1NC40Njk1NzM5NzQ2MDk0LCJ5Ijo1OS41OTk5OTg0NzQxMjEwOTR9LHsieCI6MTQxMi4xMjU4MjM5NzQ2MDk0LCJ5Ijo1OS41OTk5OTg0NzQxMjEwOTR9LHsieCI6MTU2OS43ODIwNzM5NzQ2MDk0LCJ5Ijo1OS41OTk5OTg0NzQxMjEwOTR9LHsieCI6MTcyOS43NTM1NzA1NTY2NDA2LCJ5Ijo1OS41OTk5OTg0NzQxMjEwOTR9LHsieCI6MTg4OS43MjUwNjcxMzg2NzE5LCJ5Ijo1OS41OTk5OTg0NzQxMjEwOTR9LHsieCI6MTkzMS40NTUxNDY3ODk1NTA4LCJ5Ijo1OS41OTk5OTg0NzQxMjEwOTR9XQ==" marker-end="url(#mermaid-_r_4c_-1_class-dependencyEnd)"></path><path d="M1138.141,421.9L1157.529,398.05C1176.917,374.2,1215.693,326.5,1261.357,302.65C1307.022,278.8,1359.574,278.8,1412.126,278.8C1464.678,278.8,1517.23,278.8,1557.371,278.8C1597.513,278.8,1625.244,278.8,1639.109,278.8L1652.975,278.8" id="id_SwapRequestServiceImpl_ShiftRepository_4" class="edge-thickness-normal edge-pattern-solid relation" style=";;;" data-edge="true" data-et="edge" data-id="id_SwapRequestServiceImpl_ShiftRepository_4" data-points="W3sieCI6MTEzOC4xNDA2OTAzODg1ODIsInkiOjQyMS45MDAwMjA1OTkzNjUyM30seyJ4IjoxMjU0LjQ2OTU3Mzk3NDYwOTQsInkiOjI3OC44MDAwMDMwNTE3NTc4fSx7IngiOjE0MTIuMTI1ODIzOTc0NjA5NCwieSI6Mjc4LjgwMDAwMzA1MTc1Nzh9LHsieCI6MTU2OS43ODIwNzM5NzQ2MDk0LCJ5IjoyNzguODAwMDAzMDUxNzU3OH0seyJ4IjoxNjU4Ljk3NDY2Mjc4MDc2MTcsInkiOjI3OC44MDAwMDMwNTE3NTc4fV0=" marker-end="url(#mermaid-_r_4c_-1_class-dependencyEnd)"></path><path d="M1229.47,577.728L1233.636,578.79C1237.803,579.852,1246.136,581.976,1258.407,583.038C1270.679,584.1,1286.888,584.1,1294.992,584.1L1303.097,584.1" id="id_SwapRequestServiceImpl_SwapRequestRepository_5" class="edge-thickness-normal edge-pattern-solid relation" style=";;;" data-edge="true" data-et="edge" data-id="id_SwapRequestServiceImpl_SwapRequestRepository_5" data-points="W3sieCI6MTIyOS40Njk1NzM5NzQ2MDk0LCJ5Ijo1NzcuNzI4MDMxNTYyNTgyMX0seyJ4IjoxMjU0LjQ2OTU3Mzk3NDYwOTQsInkiOjU4NC4xMDAwMTM3MzI5MTAyfSx7IngiOjEzMDkuMDk2OTE2MTk4NzMwNSwieSI6NTg0LjEwMDAxMzczMjkxMDJ9XQ==" marker-end="url(#mermaid-_r_4c_-1_class-dependencyEnd)"></path><path d="M424.148,896.796L428.314,894.763C432.481,892.73,440.814,888.665,457.404,886.633C473.994,884.6,498.839,884.6,511.262,884.6L523.685,884.6" id="id_SwapRequestController_CreateSwapRequestRequest_6" class="edge-thickness-normal edge-pattern-solid relation" style=";;;" data-edge="true" data-et="edge" data-id="id_SwapRequestController_CreateSwapRequestRequest_6" data-points="W3sieCI6NDI0LjE0NzY3NDU2MDU0NjksInkiOjg5Ni43OTU3MTU4MTM2NDM5fSx7IngiOjQ0OS4xNDc2NzQ1NjA1NDY5LCJ5Ijo4ODQuNjAwMDA5OTE4MjEyOX0seyJ4Ijo1MjkuNjg1MTczMDM0NjY4LCJ5Ijo4ODQuNjAwMDA5OTE4MjEyOX1d" marker-end="url(#mermaid-_r_4c_-1_class-dependencyEnd)"></path><path d="M424.148,964.465L428.314,963.788C432.481,963.11,440.814,961.755,477.827,961.078C514.839,960.4,580.53,960.4,646.221,960.4C711.912,960.4,777.603,960.4,844.714,960.4C911.824,960.4,980.353,960.4,1048.882,960.4C1117.411,960.4,1185.94,960.4,1240.876,932.355C1295.811,904.31,1337.153,848.22,1357.823,820.175L1378.494,792.13" id="id_SwapRequestController_CreateSwapRequestCommand_7" class="edge-thickness-normal edge-pattern-solid relation" style=";;;" data-edge="true" data-et="edge" data-id="id_SwapRequestController_CreateSwapRequestCommand_7" data-points="W3sieCI6NDI0LjE0NzY3NDU2MDU0NjksInkiOjk2NC40NjUyNDQ0NTM3NTA0fSx7IngiOjQ0OS4xNDc2NzQ1NjA1NDY5LCJ5Ijo5NjAuNDAwMDA5MTU1MjczNH0seyJ4Ijo2NDYuMjIxMTE1MTEyMzA0NywieSI6OTYwLjQwMDAwOTE1NTI3MzR9LHsieCI6ODQzLjI5NDU1NTY2NDA2MjUsInkiOjk2MC40MDAwMDkxNTUyNzM0fSx7IngiOjEwNDguODgyMDY0ODE5MzM2LCJ5Ijo5NjAuNDAwMDA5MTU1MjczNH0seyJ4IjoxMjU0LjQ2OTU3Mzk3NDYwOTQsInkiOjk2MC40MDAwMDkxNTUyNzM0fSx7IngiOjEzODIuMDUzOTQ0NTY0MTE2NCwieSI6Nzg3LjMwMDAxMjU4ODUwMX1d" marker-end="url(#mermaid-_r_4c_-1_class-dependencyEnd)"></path><path d="M424.148,1032.135L428.314,1032.812C432.481,1033.49,440.814,1034.845,456.125,1035.522C471.435,1036.2,493.722,1036.2,504.866,1036.2L516.009,1036.2" id="id_SwapRequestController_SwapRequestDecisionRequest_8" class="edge-thickness-normal edge-pattern-solid relation" style=";;;" data-edge="true" data-et="edge" data-id="id_SwapRequestController_SwapRequestDecisionRequest_8" data-points="W3sieCI6NDI0LjE0NzY3NDU2MDU0NjksInkiOjEwMzIuMTM0NzczMDkzODU3fSx7IngiOjQ0OS4xNDc2NzQ1NjA1NDY5LCJ5IjoxMDM2LjIwMDAwODM5MjMzNH0seyJ4Ijo1MjIuMDA5MzkxNzg0NjY4LCJ5IjoxMDM2LjIwMDAwODM5MjMzNH1d" marker-end="url(#mermaid-_r_4c_-1_class-dependencyEnd)"></path><path d="M424.148,1099.804L428.314,1101.837C432.481,1103.87,440.814,1107.935,477.827,1109.967C514.839,1112,580.53,1112,646.221,1112C711.912,1112,777.603,1112,844.714,1112C911.824,1112,980.353,1112,1048.882,1112C1117.411,1112,1185.94,1112,1241.117,1082.301C1296.294,1052.602,1338.118,993.204,1359.03,963.505L1379.943,933.806" id="id_SwapRequestController_SwapRequestDecisionCommand_9" class="edge-thickness-normal edge-pattern-solid relation" style=";;;" data-edge="true" data-et="edge" data-id="id_SwapRequestController_SwapRequestDecisionCommand_9" data-points="W3sieCI6NDI0LjE0NzY3NDU2MDU0NjksInkiOjEwOTkuODA0MzAxNzMzOTYzNX0seyJ4Ijo0NDkuMTQ3Njc0NTYwNTQ2OSwieSI6MTExMi4wMDAwMDc2MjkzOTQ1fSx7IngiOjY0Ni4yMjExMTUxMTIzMDQ3LCJ5IjoxMTEyLjAwMDAwNzYyOTM5NDV9LHsieCI6ODQzLjI5NDU1NTY2NDA2MjUsInkiOjExMTIuMDAwMDA3NjI5Mzk0NX0seyJ4IjoxMDQ4Ljg4MjA2NDgxOTMzNiwieSI6MTExMi4wMDAwMDc2MjkzOTQ1fSx7IngiOjEyNTQuNDY5NTczOTc0NjA5NCwieSI6MTExMi4wMDAwMDc2MjkzOTQ1fSx7IngiOjEzODMuMzk3MDM4ODAxNDU4LCJ5Ijo5MjguOTAwMDExMDYyNjIyMX1d" marker-end="url(#mermaid-_r_4c_-1_class-dependencyEnd)"></path><path d="M344.416,1108.1L361.872,1123.033C379.327,1137.967,414.237,1167.833,464.538,1182.767C514.839,1197.7,580.53,1197.7,646.221,1197.7C711.912,1197.7,777.603,1197.7,844.714,1197.7C911.824,1197.7,980.353,1197.7,1048.882,1197.7C1117.411,1197.7,1185.94,1197.7,1235.71,1182.142C1285.479,1166.583,1316.489,1135.467,1331.994,1119.908L1347.499,1104.35" id="id_SwapRequestController_SwapRequestView_10" class="edge-thickness-normal edge-pattern-solid relation" style=";;;" data-edge="true" data-et="edge" data-id="id_SwapRequestController_SwapRequestView_10" data-points="W3sieCI6MzQ0LjQxNjM5Nzc2MjcxODEzLCJ5IjoxMTA4LjEwMDAwNDE5NjE2N30seyJ4Ijo0NDkuMTQ3Njc0NTYwNTQ2OSwieSI6MTE5Ny43MDAwMDY0ODQ5ODU0fSx7IngiOjY0Ni4yMjExMTUxMTIzMDQ3LCJ5IjoxMTk3LjcwMDAwNjQ4NDk4NTR9LHsieCI6ODQzLjI5NDU1NTY2NDA2MjUsInkiOjExOTcuNzAwMDA2NDg0OTg1NH0seyJ4IjoxMDQ4Ljg4MjA2NDgxOTMzNiwieSI6MTE5Ny43MDAwMDY0ODQ5ODU0fSx7IngiOjEyNTQuNDY5NTczOTc0NjA5NCwieSI6MTE5Ny43MDAwMDY0ODQ5ODU0fSx7IngiOjEzNTEuNzM0MTEyODg5MDQzNCwieSI6MTEwMC4xMDAwMDgwMTA4NjQzfV0=" marker-end="url(#mermaid-_r_4c_-1_class-dependencyEnd)"></path><path d="M1217.845,641.5L1223.949,645.467C1230.053,649.433,1242.262,657.367,1260.55,667.609C1278.838,677.851,1303.207,690.402,1315.391,696.677L1327.575,702.953" id="id_SwapRequestServiceImpl_CreateSwapRequestCommand_11" class="edge-thickness-normal edge-pattern-solid relation" style=";;;" data-edge="true" data-et="edge" data-id="id_SwapRequestServiceImpl_CreateSwapRequestCommand_11" data-points="W3sieCI6MTIxNy44NDU0NDkxMzI0NjM1LCJ5Ijo2NDEuNTAwMDExNDQ0MDkxOH0seyJ4IjoxMjU0LjQ2OTU3Mzk3NDYwOTQsInkiOjY2NS4zMDAwMTI1ODg1MDF9LHsieCI6MTMzMi45MDkzODUzMTM1MTk4LCJ5Ijo3MDUuNzAwMDE0MTE0Mzc5OX1d" marker-end="url(#mermaid-_r_4c_-1_class-dependencyEnd)"></path><path d="M1156.683,641.5L1172.981,658.1C1189.278,674.7,1221.874,707.9,1256.424,741.518C1290.973,775.136,1327.476,809.172,1345.728,826.19L1363.98,843.208" id="id_SwapRequestServiceImpl_SwapRequestDecisionCommand_12" class="edge-thickness-normal edge-pattern-solid relation" style=";;;" data-edge="true" data-et="edge" data-id="id_SwapRequestServiceImpl_SwapRequestDecisionCommand_12" data-points="W3sieCI6MTE1Ni42ODI5NjI3MDEzNTQ0LCJ5Ijo2NDEuNTAwMDExNDQ0MDkxOH0seyJ4IjoxMjU0LjQ2OTU3Mzk3NDYwOTQsInkiOjc0MS4xMDAwMTE4MjU1NjE1fSx7IngiOjEzNjguMzY4MTcxNzMxNjMxLCJ5Ijo4NDcuMzAwMDEyNTg4NTAxfV0=" marker-end="url(#mermaid-_r_4c_-1_class-dependencyEnd)"></path><path d="M1125.377,641.5L1146.892,672.383C1168.408,703.267,1211.439,765.033,1251.148,820.463C1290.858,875.893,1327.247,924.987,1345.441,949.533L1363.635,974.08" id="id_SwapRequestServiceImpl_SwapRequestView_13" class="edge-thickness-normal edge-pattern-solid relation" style=";;;" data-edge="true" data-et="edge" data-id="id_SwapRequestServiceImpl_SwapRequestView_13" data-points="W3sieCI6MTEyNS4zNzY1MDA1MTExOTgsInkiOjY0MS41MDAwMTE0NDQwOTE4fSx7IngiOjEyNTQuNDY5NTczOTc0NjA5NCwieSI6ODI2LjgwMDAxMDY4MTE1MjN9LHsieCI6MTM2Ny4yMDgyNDcyODk4OTAzLCJ5Ijo5NzguOTAwMDExMDYyNjIyMX1d" marker-end="url(#mermaid-_r_4c_-1_class-dependencyEnd)"></path><path d="M1515.155,584.1L1524.259,584.1C1533.364,584.1,1551.573,584.1,1563.844,584.1C1576.115,584.1,1582.449,584.1,1585.615,584.1L1588.782,584.1" id="id_SwapRequestRepository_SwapRequest_14" class="edge-thickness-normal edge-pattern-solid relation" style=";;;" data-edge="true" data-et="edge" data-id="id_SwapRequestRepository_SwapRequest_14" data-points="W3sieCI6MTUxNS4xNTQ3MzE3NTA0ODgzLCJ5Ijo1ODQuMTAwMDEzNzMyOTEwMn0seyJ4IjoxNTY5Ljc4MjA3Mzk3NDYwOTQsInkiOjU4NC4xMDAwMTM3MzI5MTAyfSx7IngiOjE1OTQuNzgyMDczOTc0NjA5NCwieSI6NTg0LjEwMDAxMzczMjkxMDJ9XQ==" marker-end="url(#mermaid-_r_4c_-1_class-dependencyEnd)"></path><path d="M1800.532,278.8L1815.398,278.8C1830.263,278.8,1859.994,278.8,1878.026,278.8C1896.058,278.8,1902.392,278.8,1905.558,278.8L1908.725,278.8" id="id_ShiftRepository_Shift_15" class="edge-thickness-normal edge-pattern-solid relation" style=";;;" data-edge="true" data-et="edge" data-id="id_ShiftRepository_Shift_15" data-points="W3sieCI6MTgwMC41MzI0NzgzMzI1MTk1LCJ5IjoyNzguODAwMDAzMDUxNzU3OH0seyJ4IjoxODg5LjcyNTA2NzEzODY3MTksInkiOjI3OC44MDAwMDMwNTE3NTc4fSx7IngiOjE5MTQuNzI1MDY3MTM4NjcxOSwieSI6Mjc4LjgwMDAwMzA1MTc1Nzh9XQ==" marker-end="url(#mermaid-_r_4c_-1_class-dependencyEnd)"></path><path d="M2110.388,59.6L2117.343,59.6C2124.298,59.6,2138.208,59.6,2151.232,66.166C2164.256,72.731,2176.394,85.863,2182.463,92.428L2188.532,98.994" id="id_EmployeeRepository_Employee_16" class="edge-thickness-normal edge-pattern-solid relation" style=";;;" data-edge="true" data-et="edge" data-id="id_EmployeeRepository_Employee_16" data-points="W3sieCI6MjExMC4zODc5NjIzNDEzMDg2LCJ5Ijo1OS41OTk5OTg0NzQxMjEwOTR9LHsieCI6MjE1Mi4xMTgwNDE5OTIxODc1LCJ5Ijo1OS41OTk5OTg0NzQxMjEwOTR9LHsieCI6MjE5Mi42MDQ3MjU2OTM2NDMsInkiOjEwMy4zOTk5OTc3MTExODE2NH1d" marker-end="url(#mermaid-_r_4c_-1_class-dependencyEnd)"></path><path d="M1864.725,519.682L1868.892,517.693C1873.058,515.705,1881.392,511.727,1907.424,509.739C1933.457,507.75,1977.189,507.75,2020.922,507.75C2064.654,507.75,2108.386,507.75,2144.656,472.285C2180.926,436.82,2209.733,365.889,2224.137,330.424L2238.541,294.959" id="id_SwapRequest_Employee_17" class="edge-thickness-normal edge-pattern-solid relation" style=";;;" data-edge="true" data-et="edge" data-id="id_SwapRequest_Employee_17" data-points="W3sieCI6MTg2NC43MjUwNjcxMzg2NzE5LCJ5Ijo1MTkuNjgxODI0OTEwODg0NH0seyJ4IjoxODg5LjcyNTA2NzEzODY3MTksInkiOjUwNy43NTAwMTE0NDQwOTE4fSx7IngiOjIwMjAuOTIxNTU0NTY1NDI5NywieSI6NTA3Ljc1MDAxMTQ0NDA5MTh9LHsieCI6MjE1Mi4xMTgwNDE5OTIxODc1LCJ5Ijo1MDcuNzUwMDExNDQ0MDkxOH0seyJ4IjoyMjQwLjc5ODYyNDE5OTg3ODMsInkiOjI4OS40MDAwMTI5Njk5NzA3fV0=" marker-end="url(#mermaid-_r_4c_-1_class-dependencyEnd)"></path><path d="M1864.725,592.537L1868.892,592.798C1873.058,593.058,1881.392,593.579,1898.885,561.813C1916.378,530.047,1943.03,465.993,1956.357,433.966L1969.683,401.94" id="id_SwapRequest_Shift_18" class="edge-thickness-normal edge-pattern-solid relation" style=";;;" data-edge="true" data-et="edge" data-id="id_SwapRequest_Shift_18" data-points="W3sieCI6MTg2NC43MjUwNjcxMzg2NzE5LCJ5Ijo1OTIuNTM3MjM1MzI5NjIyNX0seyJ4IjoxODg5LjcyNTA2NzEzODY3MTksInkiOjU5NC4xMDAwMTM3MzI5MTAyfSx7IngiOjE5NzEuOTg4MTM0OTY2Njk0NCwieSI6Mzk2LjQwMDAwOTE1NTI3MzQ0fV0=" marker-end="url(#mermaid-_r_4c_-1_class-dependencyEnd)"></path><path d="M2127.118,278.8L2131.285,278.8C2135.451,278.8,2143.785,278.8,2151.28,276.631C2158.776,274.462,2165.433,270.123,2168.762,267.954L2172.091,265.785" id="id_Shift_Employee_19" class="edge-thickness-normal edge-pattern-solid relation" style=";;;" data-edge="true" data-et="edge" data-id="id_Shift_Employee_19" data-points="W3sieCI6MjEyNy4xMTgwNDE5OTIxODc1LCJ5IjoyNzguODAwMDAzMDUxNzU3OH0seyJ4IjoyMTUyLjExODA0MTk5MjE4NzUsInkiOjI3OC44MDAwMDMwNTE3NTc4fSx7IngiOjIxNzcuMTE4MDQxOTkyMTg3NSwieSI6MjYyLjUwOTE4MTQ3MDU4MzE0fV0=" marker-end="url(#mermaid-_r_4c_-1_class-dependencyEnd)"></path><path d="M319.2,1273.5L340.858,1273.5C362.516,1273.5,405.832,1273.5,452.078,1273.5C498.324,1273.5,547.501,1273.5,572.089,1273.5L596.677,1273.5" id="id_GlobalExceptionHandler_ApiError_20" class="edge-thickness-normal edge-pattern-solid relation" style=";;;" data-edge="true" data-et="edge" data-id="id_GlobalExceptionHandler_ApiError_20" data-points="W3sieCI6MzE5LjE5OTYyMzEwNzkxMDE2LCJ5IjoxMjczLjUwMDAwNTcyMjA0Nn0seyJ4Ijo0NDkuMTQ3Njc0NTYwNTQ2OSwieSI6MTI3My41MDAwMDU3MjIwNDZ9LHsieCI6NjAyLjY3NzM2NDM0OTM2NTIsInkiOjEyNzMuNTAwMDA1NzIyMDQ2fV0=" marker-end="url(#mermaid-_r_4c_-1_class-dependencyEnd)"></path></g><g class="edgeLabels"><g><rect class="background" style="stroke: none"></rect></g><g><rect class="background" style="stroke: none"></rect></g><g><rect class="background" style="stroke: none"></rect></g><g><rect class="background" style="stroke: none"></rect></g><g><rect class="background" style="stroke: none"></rect></g><g><rect class="background" style="stroke: none"></rect></g><g><rect class="background" style="stroke: none"></rect></g><g><rect class="background" style="stroke: none"></rect></g><g><rect class="background" style="stroke: none"></rect></g><g><rect class="background" style="stroke: none"></rect></g><g><rect class="background" style="stroke: none"></rect></g><g><rect class="background" style="stroke: none"></rect></g><g><rect class="background" style="stroke: none"></rect></g><g><rect class="background" style="stroke: none"></rect></g><g><rect class="background" style="stroke: none"></rect></g><g><rect class="background" style="stroke: none"></rect></g><g><rect class="background" style="stroke: none"></rect></g><g><rect class="background" style="stroke: none"></rect></g><g><rect class="background" style="stroke: none"></rect></g><g><rect class="background" style="stroke: none"></rect></g><g class="edgeLabel"><g class="label" data-id="id_SwapRequestController_SwapRequestService_1" transform="translate(0, 0)"><text y="-10.1"><tspan class="text-outer-tspan" x="0" y="-0.1em" dy="1.1em"></tspan></text></g></g><g class="edgeLabel"><g class="label" data-id="id_SwapRequestService_SwapRequestServiceImpl_2" transform="translate(0, 0)"><text y="-10.1"><tspan class="text-outer-tspan" x="0" y="-0.1em" dy="1.1em"></tspan></text></g></g><g class="edgeLabel"><g class="label" data-id="id_SwapRequestServiceImpl_EmployeeRepository_3" transform="translate(0, 0)"><text y="-10.1"><tspan class="text-outer-tspan" x="0" y="-0.1em" dy="1.1em"></tspan></text></g></g><g class="edgeLabel"><g class="label" data-id="id_SwapRequestServiceImpl_ShiftRepository_4" transform="translate(0, 0)"><text y="-10.1"><tspan class="text-outer-tspan" x="0" y="-0.1em" dy="1.1em"></tspan></text></g></g><g class="edgeLabel"><g class="label" data-id="id_SwapRequestServiceImpl_SwapRequestRepository_5" transform="translate(0, 0)"><text y="-10.1"><tspan class="text-outer-tspan" x="0" y="-0.1em" dy="1.1em"></tspan></text></g></g><g class="edgeLabel"><g class="label" data-id="id_SwapRequestController_CreateSwapRequestRequest_6" transform="translate(0, 0)"><text y="-10.1"><tspan class="text-outer-tspan" x="0" y="-0.1em" dy="1.1em"></tspan></text></g></g><g class="edgeLabel"><g class="label" data-id="id_SwapRequestController_CreateSwapRequestCommand_7" transform="translate(0, 0)"><text y="-10.1"><tspan class="text-outer-tspan" x="0" y="-0.1em" dy="1.1em"></tspan></text></g></g><g class="edgeLabel"><g class="label" data-id="id_SwapRequestController_SwapRequestDecisionRequest_8" transform="translate(0, 0)"><text y="-10.1"><tspan class="text-outer-tspan" x="0" y="-0.1em" dy="1.1em"></tspan></text></g></g><g class="edgeLabel"><g class="label" data-id="id_SwapRequestController_SwapRequestDecisionCommand_9" transform="translate(0, 0)"><text y="-10.1"><tspan class="text-outer-tspan" x="0" y="-0.1em" dy="1.1em"></tspan></text></g></g><g class="edgeLabel"><g class="label" data-id="id_SwapRequestController_SwapRequestView_10" transform="translate(0, 0)"><text y="-10.1"><tspan class="text-outer-tspan" x="0" y="-0.1em" dy="1.1em"></tspan></text></g></g><g class="edgeLabel"><g class="label" data-id="id_SwapRequestServiceImpl_CreateSwapRequestCommand_11" transform="translate(0, 0)"><text y="-10.1"><tspan class="text-outer-tspan" x="0" y="-0.1em" dy="1.1em"></tspan></text></g></g><g class="edgeLabel"><g class="label" data-id="id_SwapRequestServiceImpl_SwapRequestDecisionCommand_12" transform="translate(0, 0)"><text y="-10.1"><tspan class="text-outer-tspan" x="0" y="-0.1em" dy="1.1em"></tspan></text></g></g><g class="edgeLabel"><g class="label" data-id="id_SwapRequestServiceImpl_SwapRequestView_13" transform="translate(0, 0)"><text y="-10.1"><tspan class="text-outer-tspan" x="0" y="-0.1em" dy="1.1em"></tspan></text></g></g><g class="edgeLabel"><g class="label" data-id="id_SwapRequestRepository_SwapRequest_14" transform="translate(0, 0)"><text y="-10.1"><tspan class="text-outer-tspan" x="0" y="-0.1em" dy="1.1em"></tspan></text></g></g><g class="edgeLabel"><g class="label" data-id="id_ShiftRepository_Shift_15" transform="translate(0, 0)"><text y="-10.1"><tspan class="text-outer-tspan" x="0" y="-0.1em" dy="1.1em"></tspan></text></g></g><g class="edgeLabel"><g class="label" data-id="id_EmployeeRepository_Employee_16" transform="translate(0, 0)"><text y="-10.1"><tspan class="text-outer-tspan" x="0" y="-0.1em" dy="1.1em"></tspan></text></g></g><g class="edgeLabel"><g class="label" data-id="id_SwapRequest_Employee_17" transform="translate(0, 0)"><text y="-10.1"><tspan class="text-outer-tspan" x="0" y="-0.1em" dy="1.1em"></tspan></text></g></g><g class="edgeLabel"><g class="label" data-id="id_SwapRequest_Shift_18" transform="translate(0, 0)"><text y="-10.1"><tspan class="text-outer-tspan" x="0" y="-0.1em" dy="1.1em"></tspan></text></g></g><g class="edgeLabel"><g class="label" data-id="id_Shift_Employee_19" transform="translate(0, 0)"><text y="-10.1"><tspan class="text-outer-tspan" x="0" y="-0.1em" dy="1.1em"></tspan></text></g></g><g class="edgeLabel"><g class="label" data-id="id_GlobalExceptionHandler_ApiError_20" transform="translate(0, 0)"><text y="-10.1"><tspan class="text-outer-tspan" x="0" y="-0.1em" dy="1.1em"></tspan></text></g></g></g><g class="nodes"><g class="node default" id="classId-SwapRequestController-0" transform="translate(216.07383728027344, 998.3000087738037)"><g class="basic label-container"><path d="M-208.07383728027344 -109.79999542236328 L208.07383728027344 -109.79999542236328 L208.07383728027344 109.79999542236328 L-208.07383728027344 109.79999542236328" stroke="none" stroke-width="0" fill="rgba(255, 255, 255, 0.96)" style=""></path><path d="M-208.07383728027344 -109.79999542236328 C-66.42051068577123 -109.79999542236328, 75.23281590873097 -109.79999542236328, 208.07383728027344 -109.79999542236328 M-208.07383728027344 -109.79999542236328 C-110.92763481793733 -109.79999542236328, -13.781432355601225 -109.79999542236328, 208.07383728027344 -109.79999542236328 M208.07383728027344 -109.79999542236328 C208.07383728027344 -46.24086868275283, 208.07383728027344 17.318258056857616, 208.07383728027344 109.79999542236328 M208.07383728027344 -109.79999542236328 C208.07383728027344 -26.66243508467734, 208.07383728027344 56.4751252530086, 208.07383728027344 109.79999542236328 M208.07383728027344 109.79999542236328 C89.61227479669587 109.79999542236328, -28.849287686881695 109.79999542236328, -208.07383728027344 109.79999542236328 M208.07383728027344 109.79999542236328 C63.631328354700145 109.79999542236328, -80.81118057087315 109.79999542236328, -208.07383728027344 109.79999542236328 M-208.07383728027344 109.79999542236328 C-208.07383728027344 24.340703552726154, -208.07383728027344 -61.11858831691097, -208.07383728027344 -109.79999542236328 M-208.07383728027344 109.79999542236328 C-208.07383728027344 57.6667098942264, -208.07383728027344 5.53342436608952, -208.07383728027344 -109.79999542236328" stroke="rgba(26, 28, 31, 0.118)" stroke-width="1.3" fill="none" stroke-dasharray="0 0" style=""></path></g><g class="annotation-group text" transform="translate(0, -89.79999542236328)"></g><g class="label-group text" transform="translate(-88.11016082763672, -89.79999542236328)"><g class="label" style="font-weight: bolder" transform="translate(0,-10.800000190734863)"><g><rect class="background" style="stroke: none"></rect><text y="-10.1" style=""><tspan class="text-outer-tspan" x="0" y="-0.1em" dy="1.1em" font-weight=""><tspan font-style="normal" class="text-inner-tspan" font-weight="">SwapRequestController</tspan></tspan></text></g></g></g><g class="members-group text" transform="translate(-196.07383728027344, -44.199995040893555)"></g><g class="methods-group text" transform="translate(-196.07383728027344, -14.199995040893555)"><g class="label" style="" transform="translate(0,-10.800000190734863)"><g><rect class="background" style="stroke: none"></rect><text y="-10.1" style=""><tspan class="text-outer-tspan" x="0" y="-0.1em" dy="1.1em"><tspan font-style="normal" class="text-inner-tspan" font-weight="normal">+create(actingEmployeeId,</tspan><tspan font-style="normal" class="text-inner-tspan" font-weight="normal"> request)</tspan></tspan></text></g></g><g class="label" style="" transform="translate(0,13.800000190734863)"><g><rect class="background" style="stroke: none"></rect><text y="-10.1" style=""><tspan class="text-outer-tspan" x="0" y="-0.1em" dy="1.1em"><tspan font-style="normal" class="text-inner-tspan" font-weight="normal">+approve(id,</tspan><tspan font-style="normal" class="text-inner-tspan" font-weight="normal"> decidingEmployeeId,</tspan><tspan font-style="normal" class="text-inner-tspan" font-weight="normal"> request)</tspan></tspan></text></g></g><g class="label" style="" transform="translate(0,38.40000057220459)"><g><rect class="background" style="stroke: none"></rect><text y="-10.1" style=""><tspan class="text-outer-tspan" x="0" y="-0.1em" dy="1.1em"><tspan font-style="normal" class="text-inner-tspan" font-weight="normal">+reject(id,</tspan><tspan font-style="normal" class="text-inner-tspan" font-weight="normal"> decidingEmployeeId,</tspan><tspan font-style="normal" class="text-inner-tspan" font-weight="normal"> request)</tspan></tspan></text></g></g><g class="label" style="" transform="translate(0,63.000000953674316)"><g><rect class="background" style="stroke: none"></rect><text y="-10.1" style=""><tspan class="text-outer-tspan" x="0" y="-0.1em" dy="1.1em"><tspan font-style="normal" class="text-inner-tspan" font-weight="normal">+getById(id)</tspan></tspan></text></g></g><g class="label" style="" transform="translate(0,87.60000133514404)"><g><rect class="background" style="stroke: none"></rect><text y="-10.1" style=""><tspan class="text-outer-tspan" x="0" y="-0.1em" dy="1.1em"><tspan font-style="normal" class="text-inner-tspan" font-weight="normal">+list(status,</tspan><tspan font-style="normal" class="text-inner-tspan" font-weight="normal"> employeeId)</tspan></tspan></text></g></g></g><g class="divider" style=""><path d="M-208.07383728027344 -64.19999504089355 C-101.657669294041 -64.19999504089355, 4.758498692191438 -64.19999504089355, 208.07383728027344 -64.19999504089355 M-208.07383728027344 -64.19999504089355 C-92.42592831975632 -64.19999504089355, 23.22198064076079 -64.19999504089355, 208.07383728027344 -64.19999504089355" stroke="rgba(26, 28, 31, 0.118)" stroke-width="1.3" fill="none" stroke-dasharray="0 0" style=""></path></g><g class="divider" style=""><path d="M-208.07383728027344 -40.199995040893555 C-48.78397247548011 -40.199995040893555, 110.50589232931321 -40.199995040893555, 208.07383728027344 -40.199995040893555 M-208.07383728027344 -40.199995040893555 C-109.41879446539669 -40.199995040893555, -10.763751650519936 -40.199995040893555, 208.07383728027344 -40.199995040893555" stroke="rgba(26, 28, 31, 0.118)" stroke-width="1.3" fill="none" stroke-dasharray="0 0" style=""></path></g></g><g class="node default" id="classId-SwapRequestService-1" transform="translate(646.2211151123047, 531.7000160217285)"><g class="basic label-container"><path d="M-172.0734405517578 -120.5999984741211 L172.0734405517578 -120.5999984741211 L172.0734405517578 120.5999984741211 L-172.0734405517578 120.5999984741211" stroke="none" stroke-width="0" fill="rgba(255, 255, 255, 0.96)" style=""></path><path d="M-172.0734405517578 -120.5999984741211 C-37.32900288624708 -120.5999984741211, 97.41543477926365 -120.5999984741211, 172.0734405517578 -120.5999984741211 M-172.0734405517578 -120.5999984741211 C-68.06372633313056 -120.5999984741211, 35.94598788549669 -120.5999984741211, 172.0734405517578 -120.5999984741211 M172.0734405517578 -120.5999984741211 C172.0734405517578 -28.56419915781514, 172.0734405517578 63.471600158490816, 172.0734405517578 120.5999984741211 M172.0734405517578 -120.5999984741211 C172.0734405517578 -48.4447789665963, 172.0734405517578 23.710440540928488, 172.0734405517578 120.5999984741211 M172.0734405517578 120.5999984741211 C84.886776101086 120.5999984741211, -2.299888349585814 120.5999984741211, -172.0734405517578 120.5999984741211 M172.0734405517578 120.5999984741211 C72.5226978866164 120.5999984741211, -27.028044778525015 120.5999984741211, -172.0734405517578 120.5999984741211 M-172.0734405517578 120.5999984741211 C-172.0734405517578 67.2615992917849, -172.0734405517578 13.923200109448715, -172.0734405517578 -120.5999984741211 M-172.0734405517578 120.5999984741211 C-172.0734405517578 51.76762854244963, -172.0734405517578 -17.064741389221837, -172.0734405517578 -120.5999984741211" stroke="rgba(26, 28, 31, 0.118)" stroke-width="1.3" fill="none" stroke-dasharray="0 0" style=""></path></g><g class="annotation-group text" transform="translate(-38.6875, -100.5999984741211)"><g class="label" style="" transform="translate(0,-10.800000190734863)"><g><rect class="background" style="stroke: none"></rect><text y="-10.1" style=""><tspan class="text-outer-tspan" x="0" y="-0.1em" dy="1.1em"><tspan font-style="normal" class="text-inner-tspan" font-weight="normal">«interface»</tspan></tspan></text></g></g></g><g class="label-group text" transform="translate(-77.3218765258789, -78.99999809265137)"><g class="label" style="font-weight: bolder" transform="translate(0,-10.800000190734863)"><g><rect class="background" style="stroke: none"></rect><text y="-10.1" style=""><tspan class="text-outer-tspan" x="0" y="-0.1em" dy="1.1em" font-weight=""><tspan font-style="normal" class="text-inner-tspan" font-weight="">SwapRequestService</tspan></tspan></text></g></g></g><g class="members-group text" transform="translate(-160.0734405517578, -33.39999771118164)"></g><g class="methods-group text" transform="translate(-160.0734405517578, -3.3999977111816406)"><g class="label" style="" transform="translate(0,-10.800000190734863)"><g><rect class="background" style="stroke: none"></rect><text y="-10.1" style=""><tspan class="text-outer-tspan" x="0" y="-0.1em" dy="1.1em"><tspan font-style="normal" class="text-inner-tspan" font-weight="normal">+createSwapRequest(command)</tspan></tspan></text></g></g><g class="label" style="" transform="translate(0,13.800000190734863)"><g><rect class="background" style="stroke: none"></rect><text y="-10.1" style=""><tspan class="text-outer-tspan" x="0" y="-0.1em" dy="1.1em"><tspan font-style="normal" class="text-inner-tspan" font-weight="normal">+approve(command)</tspan></tspan></text></g></g><g class="label" style="" transform="translate(0,38.40000057220459)"><g><rect class="background" style="stroke: none"></rect><text y="-10.1" style=""><tspan class="text-outer-tspan" x="0" y="-0.1em" dy="1.1em"><tspan font-style="normal" class="text-inner-tspan" font-weight="normal">+reject(command)</tspan></tspan></text></g></g><g class="label" style="" transform="translate(0,63.000000953674316)"><g><rect class="background" style="stroke: none"></rect><text y="-10.1" style=""><tspan class="text-outer-tspan" x="0" y="-0.1em" dy="1.1em"><tspan font-style="normal" class="text-inner-tspan" font-weight="normal">+getById(swapRequestId)</tspan></tspan></text></g></g><g class="label" style="" transform="translate(0,87.60000133514404)"><g><rect class="background" style="stroke: none"></rect><text y="-10.1" style=""><tspan class="text-outer-tspan" x="0" y="-0.1em" dy="1.1em"><tspan font-style="normal" class="text-inner-tspan" font-weight="normal">+list(statusFilter,</tspan><tspan font-style="normal" class="text-inner-tspan" font-weight="normal"> employeeIdFilter)</tspan></tspan></text></g></g></g><g class="divider" style=""><path d="M-172.0734405517578 -53.39999771118164 C-79.85435233154965 -53.39999771118164, 12.364735888658515 -53.39999771118164, 172.0734405517578 -53.39999771118164 M-172.0734405517578 -53.39999771118164 C-98.9154561650317 -53.39999771118164, -25.757471778305586 -53.39999771118164, 172.0734405517578 -53.39999771118164" stroke="rgba(26, 28, 31, 0.118)" stroke-width="1.3" fill="none" stroke-dasharray="0 0" style=""></path></g><g class="divider" style=""><path d="M-172.0734405517578 -29.39999771118164 C-81.41570382319135 -29.39999771118164, 9.242032905375112 -29.39999771118164, 172.0734405517578 -29.39999771118164 M-172.0734405517578 -29.39999771118164 C-45.839494079397255 -29.39999771118164, 80.3944523929633 -29.39999771118164, 172.0734405517578 -29.39999771118164" stroke="rgba(26, 28, 31, 0.118)" stroke-width="1.3" fill="none" stroke-dasharray="0 0" style=""></path></g></g><g class="node default" id="classId-SwapRequestServiceImpl-2" transform="translate(1048.882064819336, 531.7000160217285)"><g class="basic label-container"><path d="M-180.58750915527344 -109.79999542236328 L180.58750915527344 -109.79999542236328 L180.58750915527344 109.79999542236328 L-180.58750915527344 109.79999542236328" stroke="none" stroke-width="0" fill="rgba(255, 255, 255, 0.96)" style=""></path><path d="M-180.58750915527344 -109.79999542236328 C-77.12204252020942 -109.79999542236328, 26.3434241148546 -109.79999542236328, 180.58750915527344 -109.79999542236328 M-180.58750915527344 -109.79999542236328 C-105.02812518698576 -109.79999542236328, -29.468741218698085 -109.79999542236328, 180.58750915527344 -109.79999542236328 M180.58750915527344 -109.79999542236328 C180.58750915527344 -50.08539441979221, 180.58750915527344 9.629206582778863, 180.58750915527344 109.79999542236328 M180.58750915527344 -109.79999542236328 C180.58750915527344 -42.39786658390591, 180.58750915527344 25.004262254551463, 180.58750915527344 109.79999542236328 M180.58750915527344 109.79999542236328 C93.69938129805438 109.79999542236328, 6.811253440835316 109.79999542236328, -180.58750915527344 109.79999542236328 M180.58750915527344 109.79999542236328 C47.71943299538745 109.79999542236328, -85.14864316449854 109.79999542236328, -180.58750915527344 109.79999542236328 M-180.58750915527344 109.79999542236328 C-180.58750915527344 30.633877651331773, -180.58750915527344 -48.532240119699736, -180.58750915527344 -109.79999542236328 M-180.58750915527344 109.79999542236328 C-180.58750915527344 57.70399851726437, -180.58750915527344 5.608001612165452, -180.58750915527344 -109.79999542236328" stroke="rgba(26, 28, 31, 0.118)" stroke-width="1.3" fill="none" stroke-dasharray="0 0" style=""></path></g><g class="annotation-group text" transform="translate(0, -89.79999542236328)"></g><g class="label-group text" transform="translate(-94.3499984741211, -89.79999542236328)"><g class="label" style="font-weight: bolder" transform="translate(0,-10.800000190734863)"><g><rect class="background" style="stroke: none"></rect><text y="-10.1" style=""><tspan class="text-outer-tspan" x="0" y="-0.1em" dy="1.1em" font-weight=""><tspan font-style="normal" class="text-inner-tspan" font-weight="">SwapRequestServiceImpl</tspan></tspan></text></g></g></g><g class="members-group text" transform="translate(-168.58750915527344, -44.199995040893555)"></g><g class="methods-group text" transform="translate(-168.58750915527344, -14.199995040893555)"><g class="label" style="" transform="translate(0,-10.800000190734863)"><g><rect class="background" style="stroke: none"></rect><text y="-10.1" style=""><tspan class="text-outer-tspan" x="0" y="-0.1em" dy="1.1em"><tspan font-style="normal" class="text-inner-tspan" font-weight="normal">+createSwapRequest(command)</tspan></tspan></text></g></g><g class="label" style="" transform="translate(0,13.800000190734863)"><g><rect class="background" style="stroke: none"></rect><text y="-10.1" style=""><tspan class="text-outer-tspan" x="0" y="-0.1em" dy="1.1em"><tspan font-style="normal" class="text-inner-tspan" font-weight="normal">+approve(command)</tspan></tspan></text></g></g><g class="label" style="" transform="translate(0,38.40000057220459)"><g><rect class="background" style="stroke: none"></rect><text y="-10.1" style=""><tspan class="text-outer-tspan" x="0" y="-0.1em" dy="1.1em"><tspan font-style="normal" class="text-inner-tspan" font-weight="normal">+reject(command)</tspan></tspan></text></g></g><g class="label" style="" transform="translate(0,63.000000953674316)"><g><rect class="background" style="stroke: none"></rect><text y="-10.1" style=""><tspan class="text-outer-tspan" x="0" y="-0.1em" dy="1.1em"><tspan font-style="normal" class="text-inner-tspan" font-weight="normal">+getById(swapRequestId)</tspan></tspan></text></g></g><g class="label" style="" transform="translate(0,87.60000133514404)"><g><rect class="background" style="stroke: none"></rect><text y="-10.1" style=""><tspan class="text-outer-tspan" x="0" y="-0.1em" dy="1.1em"><tspan font-style="normal" class="text-inner-tspan" font-weight="normal">+list(statusFilter,</tspan><tspan font-style="normal" class="text-inner-tspan" font-weight="normal"> employeeIdFilter)</tspan></tspan></text></g></g></g><g class="divider" style=""><path d="M-180.58750915527344 -64.19999504089355 C-87.50222701001357 -64.19999504089355, 5.583055135246298 -64.19999504089355, 180.58750915527344 -64.19999504089355 M-180.58750915527344 -64.19999504089355 C-71.0424825152128 -64.19999504089355, 38.502544124847844 -64.19999504089355, 180.58750915527344 -64.19999504089355" stroke="rgba(26, 28, 31, 0.118)" stroke-width="1.3" fill="none" stroke-dasharray="0 0" style=""></path></g><g class="divider" style=""><path d="M-180.58750915527344 -40.199995040893555 C-69.19452764620901 -40.199995040893555, 42.198453862855416 -40.199995040893555, 180.58750915527344 -40.199995040893555 M-180.58750915527344 -40.199995040893555 C-86.70475760133053 -40.199995040893555, 7.177993952612383 -40.199995040893555, 180.58750915527344 -40.199995040893555" stroke="rgba(26, 28, 31, 0.118)" stroke-width="1.3" fill="none" stroke-dasharray="0 0" style=""></path></g></g><g class="node default" id="classId-EmployeeRepository-3" transform="translate(2020.9215545654297, 59.599998474121094)"><g class="basic label-container"><path d="M-89.4664077758789 -51.60000038146973 L89.4664077758789 -51.60000038146973 L89.4664077758789 51.60000038146973 L-89.4664077758789 51.60000038146973" stroke="none" stroke-width="0" fill="rgba(255, 255, 255, 0.96)" style=""></path><path d="M-89.4664077758789 -51.60000038146973 C-36.96321980518397 -51.60000038146973, 15.53996816551097 -51.60000038146973, 89.4664077758789 -51.60000038146973 M-89.4664077758789 -51.60000038146973 C-18.824964877745913 -51.60000038146973, 51.81647802038708 -51.60000038146973, 89.4664077758789 -51.60000038146973 M89.4664077758789 -51.60000038146973 C89.4664077758789 -21.988349580551397, 89.4664077758789 7.623301220366933, 89.4664077758789 51.60000038146973 M89.4664077758789 -51.60000038146973 C89.4664077758789 -13.414613023687139, 89.4664077758789 24.77077433409545, 89.4664077758789 51.60000038146973 M89.4664077758789 51.60000038146973 C52.287083703899285 51.60000038146973, 15.107759631919663 51.60000038146973, -89.4664077758789 51.60000038146973 M89.4664077758789 51.60000038146973 C51.133593383281315 51.60000038146973, 12.800778990683725 51.60000038146973, -89.4664077758789 51.60000038146973 M-89.4664077758789 51.60000038146973 C-89.4664077758789 29.82219681265389, -89.4664077758789 8.044393243838051, -89.4664077758789 -51.60000038146973 M-89.4664077758789 51.60000038146973 C-89.4664077758789 30.035778981693298, -89.4664077758789 8.47155758191687, -89.4664077758789 -51.60000038146973" stroke="rgba(26, 28, 31, 0.118)" stroke-width="1.3" fill="none" stroke-dasharray="0 0" style=""></path></g><g class="annotation-group text" transform="translate(-43.837501525878906, -31.600000381469727)"><g class="label" style="" transform="translate(0,-10.800000190734863)"><g><rect class="background" style="stroke: none"></rect><text y="-10.1" style=""><tspan class="text-outer-tspan" x="0" y="-0.1em" dy="1.1em"><tspan font-style="normal" class="text-inner-tspan" font-weight="normal">«repository»</tspan></tspan></text></g></g></g><g class="label-group text" transform="translate(-77.4664077758789, -10)"><g class="label" style="font-weight: bolder" transform="translate(0,-10.800000190734863)"><g><rect class="background" style="stroke: none"></rect><text y="-10.1" style=""><tspan class="text-outer-tspan" x="0" y="-0.1em" dy="1.1em" font-weight=""><tspan font-style="normal" class="text-inner-tspan" font-weight="">EmployeeRepository</tspan></tspan></text></g></g></g><g class="members-group text" transform="translate(-77.4664077758789, 35.60000038146973)"></g><g class="methods-group text" transform="translate(-77.4664077758789, 65.60000038146973)"></g><g class="divider" style=""><path d="M-89.4664077758789 15.600000381469727 C-41.341029200452 15.600000381469727, 6.784349374974909 15.600000381469727, 89.4664077758789 15.600000381469727 M-89.4664077758789 15.600000381469727 C-35.71901082168679 15.600000381469727, 18.028386132505332 15.600000381469727, 89.4664077758789 15.600000381469727" stroke="rgba(26, 28, 31, 0.118)" stroke-width="1.3" fill="none" stroke-dasharray="0 0" style=""></path></g><g class="divider" style=""><path d="M-89.4664077758789 33.60000038146973 C-51.6722737926754 33.60000038146973, -13.87813980947189 33.60000038146973, 89.4664077758789 33.60000038146973 M-89.4664077758789 33.60000038146973 C-25.963727282561557 33.60000038146973, 37.53895321075579 33.60000038146973, 89.4664077758789 33.60000038146973" stroke="rgba(26, 28, 31, 0.118)" stroke-width="1.3" fill="none" stroke-dasharray="0 0" style=""></path></g></g><g class="node default" id="classId-ShiftRepository-4" transform="translate(1729.7535705566406, 278.8000030517578)"><g class="basic label-container"><path d="M-70.7789077758789 -51.60000038146973 L70.7789077758789 -51.60000038146973 L70.7789077758789 51.60000038146973 L-70.7789077758789 51.60000038146973" stroke="none" stroke-width="0" fill="rgba(255, 255, 255, 0.96)" style=""></path><path d="M-70.7789077758789 -51.60000038146973 C-32.76739625056561 -51.60000038146973, 5.244115274747685 -51.60000038146973, 70.7789077758789 -51.60000038146973 M-70.7789077758789 -51.60000038146973 C-15.595159612399094 -51.60000038146973, 39.58858855108072 -51.60000038146973, 70.7789077758789 -51.60000038146973 M70.7789077758789 -51.60000038146973 C70.7789077758789 -17.749747144150753, 70.7789077758789 16.10050609316822, 70.7789077758789 51.60000038146973 M70.7789077758789 -51.60000038146973 C70.7789077758789 -18.419202842927675, 70.7789077758789 14.761594695614377, 70.7789077758789 51.60000038146973 M70.7789077758789 51.60000038146973 C29.3517203232553 51.60000038146973, -12.075467129368306 51.60000038146973, -70.7789077758789 51.60000038146973 M70.7789077758789 51.60000038146973 C37.927949522856366 51.60000038146973, 5.076991269833826 51.60000038146973, -70.7789077758789 51.60000038146973 M-70.7789077758789 51.60000038146973 C-70.7789077758789 20.325910790089196, -70.7789077758789 -10.948178801291334, -70.7789077758789 -51.60000038146973 M-70.7789077758789 51.60000038146973 C-70.7789077758789 17.54206770641938, -70.7789077758789 -16.515864968630964, -70.7789077758789 -51.60000038146973" stroke="rgba(26, 28, 31, 0.118)" stroke-width="1.3" fill="none" stroke-dasharray="0 0" style=""></path></g><g class="annotation-group text" transform="translate(-43.837501525878906, -31.600000381469727)"><g class="label" style="" transform="translate(0,-10.800000190734863)"><g><rect class="background" style="stroke: none"></rect><text y="-10.1" style=""><tspan class="text-outer-tspan" x="0" y="-0.1em" dy="1.1em"><tspan font-style="normal" class="text-inner-tspan" font-weight="normal">«repository»</tspan></tspan></text></g></g></g><g class="label-group text" transform="translate(-58.778907775878906, -10)"><g class="label" style="font-weight: bolder" transform="translate(0,-10.800000190734863)"><g><rect class="background" style="stroke: none"></rect><text y="-10.1" style=""><tspan class="text-outer-tspan" x="0" y="-0.1em" dy="1.1em" font-weight=""><tspan font-style="normal" class="text-inner-tspan" font-weight="">ShiftRepository</tspan></tspan></text></g></g></g><g class="members-group text" transform="translate(-58.778907775878906, 35.60000038146973)"></g><g class="methods-group text" transform="translate(-58.778907775878906, 65.60000038146973)"></g><g class="divider" style=""><path d="M-70.7789077758789 15.600000381469727 C-40.550463059169715 15.600000381469727, -10.322018342460524 15.600000381469727, 70.7789077758789 15.600000381469727 M-70.7789077758789 15.600000381469727 C-19.659190241519624 15.600000381469727, 31.460527292839657 15.600000381469727, 70.7789077758789 15.600000381469727" stroke="rgba(26, 28, 31, 0.118)" stroke-width="1.3" fill="none" stroke-dasharray="0 0" style=""></path></g><g class="divider" style=""><path d="M-70.7789077758789 33.60000038146973 C-42.39242305535974 33.60000038146973, -14.005938334840579 33.60000038146973, 70.7789077758789 33.60000038146973 M-70.7789077758789 33.60000038146973 C-29.052302051528798 33.60000038146973, 12.67430367282131 33.60000038146973, 70.7789077758789 33.60000038146973" stroke="rgba(26, 28, 31, 0.118)" stroke-width="1.3" fill="none" stroke-dasharray="0 0" style=""></path></g></g><g class="node default" id="classId-SwapRequestRepository-5" transform="translate(1412.1258239746094, 584.1000137329102)"><g class="basic label-container"><path d="M-103.0289077758789 -51.60000038146973 L103.0289077758789 -51.60000038146973 L103.0289077758789 51.60000038146973 L-103.0289077758789 51.60000038146973" stroke="none" stroke-width="0" fill="rgba(255, 255, 255, 0.96)" style=""></path><path d="M-103.0289077758789 -51.60000038146973 C-42.85545589641589 -51.60000038146973, 17.317995983047126 -51.60000038146973, 103.0289077758789 -51.60000038146973 M-103.0289077758789 -51.60000038146973 C-54.31093461346639 -51.60000038146973, -5.592961451053867 -51.60000038146973, 103.0289077758789 -51.60000038146973 M103.0289077758789 -51.60000038146973 C103.0289077758789 -30.44106981664927, 103.0289077758789 -9.282139251828816, 103.0289077758789 51.60000038146973 M103.0289077758789 -51.60000038146973 C103.0289077758789 -12.511017540857274, 103.0289077758789 26.577965299755178, 103.0289077758789 51.60000038146973 M103.0289077758789 51.60000038146973 C48.91322037963746 51.60000038146973, -5.20246701660399 51.60000038146973, -103.0289077758789 51.60000038146973 M103.0289077758789 51.60000038146973 C59.58363631653452 51.60000038146973, 16.13836485719014 51.60000038146973, -103.0289077758789 51.60000038146973 M-103.0289077758789 51.60000038146973 C-103.0289077758789 23.219074920410943, -103.0289077758789 -5.1618505406478405, -103.0289077758789 -51.60000038146973 M-103.0289077758789 51.60000038146973 C-103.0289077758789 12.191522755286321, -103.0289077758789 -27.216954870897084, -103.0289077758789 -51.60000038146973" stroke="rgba(26, 28, 31, 0.118)" stroke-width="1.3" fill="none" stroke-dasharray="0 0" style=""></path></g><g class="annotation-group text" transform="translate(-43.837501525878906, -31.600000381469727)"><g class="label" style="" transform="translate(0,-10.800000190734863)"><g><rect class="background" style="stroke: none"></rect><text y="-10.1" style=""><tspan class="text-outer-tspan" x="0" y="-0.1em" dy="1.1em"><tspan font-style="normal" class="text-inner-tspan" font-weight="normal">«repository»</tspan></tspan></text></g></g></g><g class="label-group text" transform="translate(-91.0289077758789, -10)"><g class="label" style="font-weight: bolder" transform="translate(0,-10.800000190734863)"><g><rect class="background" style="stroke: none"></rect><text y="-10.1" style=""><tspan class="text-outer-tspan" x="0" y="-0.1em" dy="1.1em" font-weight=""><tspan font-style="normal" class="text-inner-tspan" font-weight="">SwapRequestRepository</tspan></tspan></text></g></g></g><g class="members-group text" transform="translate(-91.0289077758789, 35.60000038146973)"></g><g class="methods-group text" transform="translate(-91.0289077758789, 65.60000038146973)"></g><g class="divider" style=""><path d="M-103.0289077758789 15.600000381469727 C-23.34146076345644 15.600000381469727, 56.34598624896603 15.600000381469727, 103.0289077758789 15.600000381469727 M-103.0289077758789 15.600000381469727 C-53.876804352450606 15.600000381469727, -4.724700929022305 15.600000381469727, 103.0289077758789 15.600000381469727" stroke="rgba(26, 28, 31, 0.118)" stroke-width="1.3" fill="none" stroke-dasharray="0 0" style=""></path></g><g class="divider" style=""><path d="M-103.0289077758789 33.60000038146973 C-37.800952341393995 33.60000038146973, 27.427003093090917 33.60000038146973, 103.0289077758789 33.60000038146973 M-103.0289077758789 33.60000038146973 C-26.162190391296946 33.60000038146973, 50.704526993285015 33.60000038146973, 103.0289077758789 33.60000038146973" stroke="rgba(26, 28, 31, 0.118)" stroke-width="1.3" fill="none" stroke-dasharray="0 0" style=""></path></g></g><g class="node default" id="classId-Employee-6" transform="translate(2278.569610595703, 196.40000534057617)"><g class="basic label-container"><path d="M-101.45156860351562 -93.00000762939453 L101.45156860351562 -93.00000762939453 L101.45156860351562 93.00000762939453 L-101.45156860351562 93.00000762939453" stroke="none" stroke-width="0" fill="rgba(255, 255, 255, 0.96)" style=""></path><path d="M-101.45156860351562 -93.00000762939453 C-56.25143217775011 -93.00000762939453, -11.051295751984597 -93.00000762939453, 101.45156860351562 -93.00000762939453 M-101.45156860351562 -93.00000762939453 C-29.976019912512527 -93.00000762939453, 41.49952877849057 -93.00000762939453, 101.45156860351562 -93.00000762939453 M101.45156860351562 -93.00000762939453 C101.45156860351562 -30.75761635062583, 101.45156860351562 31.48477492814287, 101.45156860351562 93.00000762939453 M101.45156860351562 -93.00000762939453 C101.45156860351562 -28.138023440382128, 101.45156860351562 36.723960748630276, 101.45156860351562 93.00000762939453 M101.45156860351562 93.00000762939453 C36.92555904847062 93.00000762939453, -27.60045050657439 93.00000762939453, -101.45156860351562 93.00000762939453 M101.45156860351562 93.00000762939453 C58.831910071588695 93.00000762939453, 16.212251539661764 93.00000762939453, -101.45156860351562 93.00000762939453 M-101.45156860351562 93.00000762939453 C-101.45156860351562 21.910524893094717, -101.45156860351562 -49.1789578432051, -101.45156860351562 -93.00000762939453 M-101.45156860351562 93.00000762939453 C-101.45156860351562 49.86881854851802, -101.45156860351562 6.737629467641511, -101.45156860351562 -93.00000762939453" stroke="rgba(26, 28, 31, 0.118)" stroke-width="1.3" fill="none" stroke-dasharray="0 0" style=""></path></g><g class="annotation-group text" transform="translate(0, -73.00000762939453)"></g><g class="label-group text" transform="translate(-36.665626525878906, -73.00000762939453)"><g class="label" style="font-weight: bolder" transform="translate(0,-10.800000190734863)"><g><rect class="background" style="stroke: none"></rect><text y="-10.1" style=""><tspan class="text-outer-tspan" x="0" y="-0.1em" dy="1.1em" font-weight=""><tspan font-style="normal" class="text-inner-tspan" font-weight="">Employee</tspan></tspan></text></g></g></g><g class="members-group text" transform="translate(-89.45156860351562, -27.400007247924805)"><g class="label" style="" transform="translate(0,-10.800000190734863)"><g><rect class="background" style="stroke: none"></rect><text y="-10.1" style=""><tspan class="text-outer-tspan" x="0" y="-0.1em" dy="1.1em"><tspan font-style="normal" class="text-inner-tspan" font-weight="normal">+Long</tspan><tspan font-style="normal" class="text-inner-tspan" font-weight="normal"> id</tspan></tspan></text></g></g><g class="label" style="" transform="translate(0,13.800000190734863)"><g><rect class="background" style="stroke: none"></rect><text y="-10.1" style=""><tspan class="text-outer-tspan" x="0" y="-0.1em" dy="1.1em"><tspan font-style="normal" class="text-inner-tspan" font-weight="normal">+String</tspan><tspan font-style="normal" class="text-inner-tspan" font-weight="normal"> name</tspan></tspan></text></g></g><g class="label" style="" transform="translate(0,38.40000057220459)"><g><rect class="background" style="stroke: none"></rect><text y="-10.1" style=""><tspan class="text-outer-tspan" x="0" y="-0.1em" dy="1.1em"><tspan font-style="normal" class="text-inner-tspan" font-weight="normal">+EmployeeRole</tspan><tspan font-style="normal" class="text-inner-tspan" font-weight="normal"> role</tspan></tspan></text></g></g></g><g class="methods-group text" transform="translate(-89.45156860351562, 67.39999580383301)"><g class="label" style="" transform="translate(0,-10.800000190734863)"><g><rect class="background" style="stroke: none"></rect><text y="-10.1" style=""><tspan class="text-outer-tspan" x="0" y="-0.1em" dy="1.1em"><tspan font-style="normal" class="text-inner-tspan" font-weight="normal">+isManager()</tspan></tspan></text></g></g></g><g class="divider" style=""><path d="M-101.45156860351562 -47.400007247924805 C-50.52921421632587 -47.400007247924805, 0.3931401708638873 -47.400007247924805, 101.45156860351562 -47.400007247924805 M-101.45156860351562 -47.400007247924805 C-60.56047280819522 -47.400007247924805, -19.66937701287482 -47.400007247924805, 101.45156860351562 -47.400007247924805" stroke="rgba(26, 28, 31, 0.118)" stroke-width="1.3" fill="none" stroke-dasharray="0 0" style=""></path></g><g class="divider" style=""><path d="M-101.45156860351562 47.39999580383301 C-47.44749430574799 47.39999580383301, 6.55657999201965 47.39999580383301, 101.45156860351562 47.39999580383301 M-101.45156860351562 47.39999580383301 C-27.01946583562625 47.39999580383301, 47.412636932263126 47.39999580383301, 101.45156860351562 47.39999580383301" stroke="rgba(26, 28, 31, 0.118)" stroke-width="1.3" fill="none" stroke-dasharray="0 0" style=""></path></g></g><g class="node default" id="classId-Shift-7" transform="translate(2020.9215545654297, 278.8000030517578)"><g class="basic label-container"><path d="M-106.19648742675781 -117.60000610351562 L106.19648742675781 -117.60000610351562 L106.19648742675781 117.60000610351562 L-106.19648742675781 117.60000610351562" stroke="none" stroke-width="0" fill="rgba(255, 255, 255, 0.96)" style=""></path><path d="M-106.19648742675781 -117.60000610351562 C-63.31967923131829 -117.60000610351562, -20.442871035878767 -117.60000610351562, 106.19648742675781 -117.60000610351562 M-106.19648742675781 -117.60000610351562 C-41.0355022715417 -117.60000610351562, 24.125482883674408 -117.60000610351562, 106.19648742675781 -117.60000610351562 M106.19648742675781 -117.60000610351562 C106.19648742675781 -26.058880065462915, 106.19648742675781 65.4822459725898, 106.19648742675781 117.60000610351562 M106.19648742675781 -117.60000610351562 C106.19648742675781 -37.75124916511484, 106.19648742675781 42.09750777328594, 106.19648742675781 117.60000610351562 M106.19648742675781 117.60000610351562 C62.89478892196354 117.60000610351562, 19.593090417169265 117.60000610351562, -106.19648742675781 117.60000610351562 M106.19648742675781 117.60000610351562 C28.938128030585688 117.60000610351562, -48.32023136558644 117.60000610351562, -106.19648742675781 117.60000610351562 M-106.19648742675781 117.60000610351562 C-106.19648742675781 50.89721284163575, -106.19648742675781 -15.805580420244127, -106.19648742675781 -117.60000610351562 M-106.19648742675781 117.60000610351562 C-106.19648742675781 44.75669815790437, -106.19648742675781 -28.08660978770689, -106.19648742675781 -117.60000610351562" stroke="rgba(26, 28, 31, 0.118)" stroke-width="1.3" fill="none" stroke-dasharray="0 0" style=""></path></g><g class="annotation-group text" transform="translate(0, -97.60000610351562)"></g><g class="label-group text" transform="translate(-17.992969512939453, -97.60000610351562)"><g class="label" style="font-weight: bolder" transform="translate(0,-10.800000190734863)"><g><rect class="background" style="stroke: none"></rect><text y="-10.1" style=""><tspan class="text-outer-tspan" x="0" y="-0.1em" dy="1.1em" font-weight=""><tspan font-style="normal" class="text-inner-tspan" font-weight="">Shift</tspan></tspan></text></g></g></g><g class="members-group text" transform="translate(-94.19648742675781, -52.0000057220459)"><g class="label" style="" transform="translate(0,-10.800000190734863)"><g><rect class="background" style="stroke: none"></rect><text y="-10.1" style=""><tspan class="text-outer-tspan" x="0" y="-0.1em" dy="1.1em"><tspan font-style="normal" class="text-inner-tspan" font-weight="normal">+Long</tspan><tspan font-style="normal" class="text-inner-tspan" font-weight="normal"> id</tspan></tspan></text></g></g><g class="label" style="" transform="translate(0,13.800000190734863)"><g><rect class="background" style="stroke: none"></rect><text y="-10.1" style=""><tspan class="text-outer-tspan" x="0" y="-0.1em" dy="1.1em"><tspan font-style="normal" class="text-inner-tspan" font-weight="normal">+Employee</tspan><tspan font-style="normal" class="text-inner-tspan" font-weight="normal"> employee</tspan></tspan></text></g></g><g class="label" style="" transform="translate(0,38.40000057220459)"><g><rect class="background" style="stroke: none"></rect><text y="-10.1" style=""><tspan class="text-outer-tspan" x="0" y="-0.1em" dy="1.1em"><tspan font-style="normal" class="text-inner-tspan" font-weight="normal">+LocalDate</tspan><tspan font-style="normal" class="text-inner-tspan" font-weight="normal"> shiftDate</tspan></tspan></text></g></g><g class="label" style="" transform="translate(0,63.000000953674316)"><g><rect class="background" style="stroke: none"></rect><text y="-10.1" style=""><tspan class="text-outer-tspan" x="0" y="-0.1em" dy="1.1em"><tspan font-style="normal" class="text-inner-tspan" font-weight="normal">+LocalTime</tspan><tspan font-style="normal" class="text-inner-tspan" font-weight="normal"> startTime</tspan></tspan></text></g></g><g class="label" style="" transform="translate(0,87.60000133514404)"><g><rect class="background" style="stroke: none"></rect><text y="-10.1" style=""><tspan class="text-outer-tspan" x="0" y="-0.1em" dy="1.1em"><tspan font-style="normal" class="text-inner-tspan" font-weight="normal">+LocalTime</tspan><tspan font-style="normal" class="text-inner-tspan" font-weight="normal"> endTime</tspan></tspan></text></g></g></g><g class="methods-group text" transform="translate(-94.19648742675781, 91.9999942779541)"><g class="label" style="" transform="translate(0,-10.800000190734863)"><g><rect class="background" style="stroke: none"></rect><text y="-10.1" style=""><tspan class="text-outer-tspan" x="0" y="-0.1em" dy="1.1em"><tspan font-style="normal" class="text-inner-tspan" font-weight="normal">+reassignTo(newOwner)</tspan></tspan></text></g></g></g><g class="divider" style=""><path d="M-106.19648742675781 -72.0000057220459 C-50.61332747511359 -72.0000057220459, 4.969832476530627 -72.0000057220459, 106.19648742675781 -72.0000057220459 M-106.19648742675781 -72.0000057220459 C-44.42053690017023 -72.0000057220459, 17.35541362641736 -72.0000057220459, 106.19648742675781 -72.0000057220459" stroke="rgba(26, 28, 31, 0.118)" stroke-width="1.3" fill="none" stroke-dasharray="0 0" style=""></path></g><g class="divider" style=""><path d="M-106.19648742675781 71.9999942779541 C-38.19760966146815 71.9999942779541, 29.801268103821513 71.9999942779541, 106.19648742675781 71.9999942779541 M-106.19648742675781 71.9999942779541 C-27.523212110397523 71.9999942779541, 51.150063205962766 71.9999942779541, 106.19648742675781 71.9999942779541" stroke="rgba(26, 28, 31, 0.118)" stroke-width="1.3" fill="none" stroke-dasharray="0 0" style=""></path></g></g><g class="node default" id="classId-SwapRequest-8" transform="translate(1729.7535705566406, 584.1000137329102)"><g class="basic label-container"><path d="M-134.97148895263672 -203.70001220703125 L134.97148895263672 -203.70001220703125 L134.97148895263672 203.70001220703125 L-134.97148895263672 203.70001220703125" stroke="none" stroke-width="0" fill="rgba(255, 255, 255, 0.96)" style=""></path><path d="M-134.97148895263672 -203.70001220703125 C-78.5169689854675 -203.70001220703125, -22.06244901829828 -203.70001220703125, 134.97148895263672 -203.70001220703125 M-134.97148895263672 -203.70001220703125 C-41.767006387925306 -203.70001220703125, 51.437476176786106 -203.70001220703125, 134.97148895263672 -203.70001220703125 M134.97148895263672 -203.70001220703125 C134.97148895263672 -120.1566737402312, 134.97148895263672 -36.61333527343115, 134.97148895263672 203.70001220703125 M134.97148895263672 -203.70001220703125 C134.97148895263672 -93.38447319915053, 134.97148895263672 16.93106580873018, 134.97148895263672 203.70001220703125 M134.97148895263672 203.70001220703125 C48.32010584015707 203.70001220703125, -38.33127727232258 203.70001220703125, -134.97148895263672 203.70001220703125 M134.97148895263672 203.70001220703125 C34.593644465193364 203.70001220703125, -65.78420002224999 203.70001220703125, -134.97148895263672 203.70001220703125 M-134.97148895263672 203.70001220703125 C-134.97148895263672 49.25201001258179, -134.97148895263672 -105.19599218186767, -134.97148895263672 -203.70001220703125 M-134.97148895263672 203.70001220703125 C-134.97148895263672 65.98885370790549, -134.97148895263672 -71.72230479122027, -134.97148895263672 -203.70001220703125" stroke="rgba(26, 28, 31, 0.118)" stroke-width="1.3" fill="none" stroke-dasharray="0 0" style=""></path></g><g class="annotation-group text" transform="translate(0, -183.70001220703125)"></g><g class="label-group text" transform="translate(-50.24296951293945, -183.70001220703125)"><g class="label" style="font-weight: bolder" transform="translate(0,-10.800000190734863)"><g><rect class="background" style="stroke: none"></rect><text y="-10.1" style=""><tspan class="text-outer-tspan" x="0" y="-0.1em" dy="1.1em" font-weight=""><tspan font-style="normal" class="text-inner-tspan" font-weight="">SwapRequest</tspan></tspan></text></g></g></g><g class="members-group text" transform="translate(-122.97148895263672, -138.10001182556152)"><g class="label" style="" transform="translate(0,-10.800000190734863)"><g><rect class="background" style="stroke: none"></rect><text y="-10.1" style=""><tspan class="text-outer-tspan" x="0" y="-0.1em" dy="1.1em"><tspan font-style="normal" class="text-inner-tspan" font-weight="normal">+Long</tspan><tspan font-style="normal" class="text-inner-tspan" font-weight="normal"> id</tspan></tspan></text></g></g><g class="label" style="" transform="translate(0,13.800000190734863)"><g><rect class="background" style="stroke: none"></rect><text y="-10.1" style=""><tspan class="text-outer-tspan" x="0" y="-0.1em" dy="1.1em"><tspan font-style="normal" class="text-inner-tspan" font-weight="normal">+Employee</tspan><tspan font-style="normal" class="text-inner-tspan" font-weight="normal"> requester</tspan></tspan></text></g></g><g class="label" style="" transform="translate(0,38.40000057220459)"><g><rect class="background" style="stroke: none"></rect><text y="-10.1" style=""><tspan class="text-outer-tspan" x="0" y="-0.1em" dy="1.1em"><tspan font-style="normal" class="text-inner-tspan" font-weight="normal">+Shift</tspan><tspan font-style="normal" class="text-inner-tspan" font-weight="normal"> requesterShift</tspan></tspan></text></g></g><g class="label" style="" transform="translate(0,63.000000953674316)"><g><rect class="background" style="stroke: none"></rect><text y="-10.1" style=""><tspan class="text-outer-tspan" x="0" y="-0.1em" dy="1.1em"><tspan font-style="normal" class="text-inner-tspan" font-weight="normal">+Employee</tspan><tspan font-style="normal" class="text-inner-tspan" font-weight="normal"> targetEmployee</tspan></tspan></text></g></g><g class="label" style="" transform="translate(0,87.60000133514404)"><g><rect class="background" style="stroke: none"></rect><text y="-10.1" style=""><tspan class="text-outer-tspan" x="0" y="-0.1em" dy="1.1em"><tspan font-style="normal" class="text-inner-tspan" font-weight="normal">+Shift</tspan><tspan font-style="normal" class="text-inner-tspan" font-weight="normal"> targetShift</tspan></tspan></text></g></g><g class="label" style="" transform="translate(0,112.20000171661377)"><g><rect class="background" style="stroke: none"></rect><text y="-10.1" style=""><tspan class="text-outer-tspan" x="0" y="-0.1em" dy="1.1em"><tspan font-style="normal" class="text-inner-tspan" font-weight="normal">+SwapRequestStatus</tspan><tspan font-style="normal" class="text-inner-tspan" font-weight="normal"> status</tspan></tspan></text></g></g><g class="label" style="" transform="translate(0,136.8000020980835)"><g><rect class="background" style="stroke: none"></rect><text y="-10.1" style=""><tspan class="text-outer-tspan" x="0" y="-0.1em" dy="1.1em"><tspan font-style="normal" class="text-inner-tspan" font-weight="normal">+String</tspan><tspan font-style="normal" class="text-inner-tspan" font-weight="normal"> reason</tspan></tspan></text></g></g><g class="label" style="" transform="translate(0,161.40000247955322)"><g><rect class="background" style="stroke: none"></rect><text y="-10.1" style=""><tspan class="text-outer-tspan" x="0" y="-0.1em" dy="1.1em"><tspan font-style="normal" class="text-inner-tspan" font-weight="normal">+Employee</tspan><tspan font-style="normal" class="text-inner-tspan" font-weight="normal"> decidedBy</tspan></tspan></text></g></g><g class="label" style="" transform="translate(0,186.00000286102295)"><g><rect class="background" style="stroke: none"></rect><text y="-10.1" style=""><tspan class="text-outer-tspan" x="0" y="-0.1em" dy="1.1em"><tspan font-style="normal" class="text-inner-tspan" font-weight="normal">+String</tspan><tspan font-style="normal" class="text-inner-tspan" font-weight="normal"> decisionNote</tspan></tspan></text></g></g><g class="label" style="" transform="translate(0,210.60000324249268)"><g><rect class="background" style="stroke: none"></rect><text y="-10.1" style=""><tspan class="text-outer-tspan" x="0" y="-0.1em" dy="1.1em"><tspan font-style="normal" class="text-inner-tspan" font-weight="normal">+Instant</tspan><tspan font-style="normal" class="text-inner-tspan" font-weight="normal"> createdAt</tspan></tspan></text></g></g><g class="label" style="" transform="translate(0,235.2000036239624)"><g><rect class="background" style="stroke: none"></rect><text y="-10.1" style=""><tspan class="text-outer-tspan" x="0" y="-0.1em" dy="1.1em"><tspan font-style="normal" class="text-inner-tspan" font-weight="normal">+Instant</tspan><tspan font-style="normal" class="text-inner-tspan" font-weight="normal"> decidedAt</tspan></tspan></text></g></g></g><g class="methods-group text" transform="translate(-122.97148895263672, 153.4999942779541)"><g class="label" style="" transform="translate(0,-10.800000190734863)"><g><rect class="background" style="stroke: none"></rect><text y="-10.1" style=""><tspan class="text-outer-tspan" x="0" y="-0.1em" dy="1.1em"><tspan font-style="normal" class="text-inner-tspan" font-weight="normal">+approve(decider,</tspan><tspan font-style="normal" class="text-inner-tspan" font-weight="normal"> note)</tspan></tspan></text></g></g><g class="label" style="" transform="translate(0,13.800000190734863)"><g><rect class="background" style="stroke: none"></rect><text y="-10.1" style=""><tspan class="text-outer-tspan" x="0" y="-0.1em" dy="1.1em"><tspan font-style="normal" class="text-inner-tspan" font-weight="normal">+reject(decider,</tspan><tspan font-style="normal" class="text-inner-tspan" font-weight="normal"> note)</tspan></tspan></text></g></g></g><g class="divider" style=""><path d="M-134.97149658203125 -158.10001182556152 C-50.38762274366455 -158.10001182556152, 34.19625109470215 -158.10001182556152, 134.97149658203125 -158.10001182556152 M-134.97149658203125 -158.10001182556152 C-59.91676204091138 -158.10001182556152, 15.137972500208491 -158.10001182556152, 134.97149658203125 -158.10001182556152" stroke="rgba(26, 28, 31, 0.118)" stroke-width="1.3" fill="none" stroke-dasharray="0 0" style=""></path></g><g class="divider" style=""><path d="M-134.97149658203125 133.4999942779541 C-50.3883323647226 133.4999942779541, 34.19483185258605 133.4999942779541, 134.97149658203125 133.4999942779541 M-134.97149658203125 133.4999942779541 C-55.49210127324825 133.4999942779541, 23.987294035534745 133.4999942779541, 134.97149658203125 133.4999942779541" stroke="rgba(26, 28, 31, 0.118)" stroke-width="1.3" fill="none" stroke-dasharray="0 0" style=""></path></g></g><g class="node default" id="classId-SwapRequestView-9" transform="translate(1412.1258239746094, 1039.5000095367432)"><g class="basic label-container"><path d="M-93.3531265258789 -60.599998474121094 L93.3531265258789 -60.599998474121094 L93.3531265258789 60.599998474121094 L-93.3531265258789 60.599998474121094" stroke="none" stroke-width="0" fill="rgba(255, 255, 255, 0.96)" style=""></path><path d="M-93.3531265258789 -60.599998474121094 C-39.77489183596209 -60.599998474121094, 13.803342853954732 -60.599998474121094, 93.3531265258789 -60.599998474121094 M-93.3531265258789 -60.599998474121094 C-23.374443535723245 -60.599998474121094, 46.60423945443242 -60.599998474121094, 93.3531265258789 -60.599998474121094 M93.3531265258789 -60.599998474121094 C93.3531265258789 -13.295721922028058, 93.3531265258789 34.00855463006498, 93.3531265258789 60.599998474121094 M93.3531265258789 -60.599998474121094 C93.3531265258789 -35.03433180426256, 93.3531265258789 -9.46866513440402, 93.3531265258789 60.599998474121094 M93.3531265258789 60.599998474121094 C50.729189837393555 60.599998474121094, 8.105253148908204 60.599998474121094, -93.3531265258789 60.599998474121094 M93.3531265258789 60.599998474121094 C47.732050633523585 60.599998474121094, 2.1109747411682633 60.599998474121094, -93.3531265258789 60.599998474121094 M-93.3531265258789 60.599998474121094 C-93.3531265258789 15.668566721963465, -93.3531265258789 -29.262865030194163, -93.3531265258789 -60.599998474121094 M-93.3531265258789 60.599998474121094 C-93.3531265258789 18.132400225424767, -93.3531265258789 -24.33519802327156, -93.3531265258789 -60.599998474121094" stroke="rgba(26, 28, 31, 0.118)" stroke-width="1.3" fill="none" stroke-dasharray="0 0" style=""></path></g><g class="annotation-group text" transform="translate(0, -40.599998474121094)"></g><g class="label-group text" transform="translate(-68.4937515258789, -40.599998474121094)"><g class="label" style="font-weight: bolder" transform="translate(0,-10.800000190734863)"><g><rect class="background" style="stroke: none"></rect><text y="-10.1" style=""><tspan class="text-outer-tspan" x="0" y="-0.1em" dy="1.1em" font-weight=""><tspan font-style="normal" class="text-inner-tspan" font-weight="">SwapRequestView</tspan></tspan></text></g></g></g><g class="members-group text" transform="translate(-81.3531265258789, 5.000001907348633)"></g><g class="methods-group text" transform="translate(-81.3531265258789, 35.00000190734863)"><g class="label" style="" transform="translate(0,-10.800000190734863)"><g><rect class="background" style="stroke: none"></rect><text y="-10.1" style=""><tspan class="text-outer-tspan" x="0" y="-0.1em" dy="1.1em"><tspan font-style="normal" class="text-inner-tspan" font-weight="normal">+from(entity)</tspan></tspan></text></g></g></g><g class="divider" style=""><path d="M-93.3531265258789 -14.999998092651367 C-32.04526481167052 -14.999998092651367, 29.262596902537865 -14.999998092651367, 93.3531265258789 -14.999998092651367 M-93.3531265258789 -14.999998092651367 C-32.76824912924394 -14.999998092651367, 27.816628267391025 -14.999998092651367, 93.3531265258789 -14.999998092651367" stroke="rgba(26, 28, 31, 0.118)" stroke-width="1.3" fill="none" stroke-dasharray="0 0" style=""></path></g><g class="divider" style=""><path d="M-93.3531265258789 9.000001907348633 C-50.78868171702656 9.000001907348633, -8.22423690817422 9.000001907348633, 93.3531265258789 9.000001907348633 M-93.3531265258789 9.000001907348633 C-48.369695738757535 9.000001907348633, -3.3862649516361643 9.000001907348633, 93.3531265258789 9.000001907348633" stroke="rgba(26, 28, 31, 0.118)" stroke-width="1.3" fill="none" stroke-dasharray="0 0" style=""></path></g></g><g class="node default" id="classId-CreateSwapRequestRequest-10" transform="translate(646.2211151123047, 884.6000099182129)"><g class="basic label-container"><path d="M-116.53594207763672 -40.80000019073486 L116.53594207763672 -40.80000019073486 L116.53594207763672 40.80000019073486 L-116.53594207763672 40.80000019073486" stroke="none" stroke-width="0" fill="rgba(255, 255, 255, 0.96)" style=""></path><path d="M-116.53594207763672 -40.80000019073486 C-60.013704777280445 -40.80000019073486, -3.4914674769241714 -40.80000019073486, 116.53594207763672 -40.80000019073486 M-116.53594207763672 -40.80000019073486 C-53.732201085530875 -40.80000019073486, 9.07153990657497 -40.80000019073486, 116.53594207763672 -40.80000019073486 M116.53594207763672 -40.80000019073486 C116.53594207763672 -14.365166301122148, 116.53594207763672 12.069667588490567, 116.53594207763672 40.80000019073486 M116.53594207763672 -40.80000019073486 C116.53594207763672 -18.55874079277688, 116.53594207763672 3.6825186051811016, 116.53594207763672 40.80000019073486 M116.53594207763672 40.80000019073486 C57.41493812952809 40.80000019073486, -1.7060658185805408 40.80000019073486, -116.53594207763672 40.80000019073486 M116.53594207763672 40.80000019073486 C50.22268392208146 40.80000019073486, -16.090574233473802 40.80000019073486, -116.53594207763672 40.80000019073486 M-116.53594207763672 40.80000019073486 C-116.53594207763672 12.671836220902083, -116.53594207763672 -15.456327748930697, -116.53594207763672 -40.80000019073486 M-116.53594207763672 40.80000019073486 C-116.53594207763672 10.387605152531869, -116.53594207763672 -20.024789885671126, -116.53594207763672 -40.80000019073486" stroke="rgba(26, 28, 31, 0.118)" stroke-width="1.3" fill="none" stroke-dasharray="0 0" style=""></path></g><g class="annotation-group text" transform="translate(0, -20.800000190734863)"></g><g class="label-group text" transform="translate(-104.53594207763672, -20.800000190734863)"><g class="label" style="font-weight: bolder" transform="translate(0,-10.800000190734863)"><g><rect class="background" style="stroke: none"></rect><text y="-10.1" style=""><tspan class="text-outer-tspan" x="0" y="-0.1em" dy="1.1em" font-weight=""><tspan font-style="normal" class="text-inner-tspan" font-weight="">CreateSwapRequestRequest</tspan></tspan></text></g></g></g><g class="members-group text" transform="translate(-104.53594207763672, 24.800000190734863)"></g><g class="methods-group text" transform="translate(-104.53594207763672, 54.80000019073486)"></g><g class="divider" style=""><path d="M-116.53594207763672 4.800000190734863 C-45.7339720343726 4.800000190734863, 25.06799800889152 4.800000190734863, 116.53594207763672 4.800000190734863 M-116.53594207763672 4.800000190734863 C-65.05357815679069 4.800000190734863, -13.571214235944666 4.800000190734863, 116.53594207763672 4.800000190734863" stroke="rgba(26, 28, 31, 0.118)" stroke-width="1.3" fill="none" stroke-dasharray="0 0" style=""></path></g><g class="divider" style=""><path d="M-116.53594207763672 22.800000190734863 C-59.15477971060635 22.800000190734863, -1.7736173435759781 22.800000190734863, 116.53594207763672 22.800000190734863 M-116.53594207763672 22.800000190734863 C-55.96169747803101 22.800000190734863, 4.612547121574693 22.800000190734863, 116.53594207763672 22.800000190734863" stroke="rgba(26, 28, 31, 0.118)" stroke-width="1.3" fill="none" stroke-dasharray="0 0" style=""></path></g></g><g class="node default" id="classId-CreateSwapRequestCommand-11" transform="translate(1412.1258239746094, 746.5000133514404)"><g class="basic label-container"><path d="M-124.98125457763672 -40.80000019073486 L124.98125457763672 -40.80000019073486 L124.98125457763672 40.80000019073486 L-124.98125457763672 40.80000019073486" stroke="none" stroke-width="0" fill="rgba(255, 255, 255, 0.96)" style=""></path><path d="M-124.98125457763672 -40.80000019073486 C-61.30006058926514 -40.80000019073486, 2.381133399106446 -40.80000019073486, 124.98125457763672 -40.80000019073486 M-124.98125457763672 -40.80000019073486 C-73.04148501086864 -40.80000019073486, -21.101715444100563 -40.80000019073486, 124.98125457763672 -40.80000019073486 M124.98125457763672 -40.80000019073486 C124.98125457763672 -8.793338889479166, 124.98125457763672 23.21332241177653, 124.98125457763672 40.80000019073486 M124.98125457763672 -40.80000019073486 C124.98125457763672 -12.24734531889914, 124.98125457763672 16.305309552936585, 124.98125457763672 40.80000019073486 M124.98125457763672 40.80000019073486 C65.3617054784009 40.80000019073486, 5.742156379165095 40.80000019073486, -124.98125457763672 40.80000019073486 M124.98125457763672 40.80000019073486 C63.048375073194464 40.80000019073486, 1.115495568752209 40.80000019073486, -124.98125457763672 40.80000019073486 M-124.98125457763672 40.80000019073486 C-124.98125457763672 12.067572825461404, -124.98125457763672 -16.664854539812055, -124.98125457763672 -40.80000019073486 M-124.98125457763672 40.80000019073486 C-124.98125457763672 12.48119731017616, -124.98125457763672 -15.837605570382543, -124.98125457763672 -40.80000019073486" stroke="rgba(26, 28, 31, 0.118)" stroke-width="1.3" fill="none" stroke-dasharray="0 0" style=""></path></g><g class="annotation-group text" transform="translate(0, -20.800000190734863)"></g><g class="label-group text" transform="translate(-112.98125457763672, -20.800000190734863)"><g class="label" style="font-weight: bolder" transform="translate(0,-10.800000190734863)"><g><rect class="background" style="stroke: none"></rect><text y="-10.1" style=""><tspan class="text-outer-tspan" x="0" y="-0.1em" dy="1.1em" font-weight=""><tspan font-style="normal" class="text-inner-tspan" font-weight="">CreateSwapRequestCommand</tspan></tspan></text></g></g></g><g class="members-group text" transform="translate(-112.98125457763672, 24.800000190734863)"></g><g class="methods-group text" transform="translate(-112.98125457763672, 54.80000019073486)"></g><g class="divider" style=""><path d="M-124.98125457763672 4.800000190734863 C-58.619571194578214 4.800000190734863, 7.7421121884802915 4.800000190734863, 124.98125457763672 4.800000190734863 M-124.98125457763672 4.800000190734863 C-28.620893508426136 4.800000190734863, 67.73946756078445 4.800000190734863, 124.98125457763672 4.800000190734863" stroke="rgba(26, 28, 31, 0.118)" stroke-width="1.3" fill="none" stroke-dasharray="0 0" style=""></path></g><g class="divider" style=""><path d="M-124.98125457763672 22.800000190734863 C-32.52673339651754 22.800000190734863, 59.927787784601634 22.800000190734863, 124.98125457763672 22.800000190734863 M-124.98125457763672 22.800000190734863 C-44.164172791627465 22.800000190734863, 36.65290899438179 22.800000190734863, 124.98125457763672 22.800000190734863" stroke="rgba(26, 28, 31, 0.118)" stroke-width="1.3" fill="none" stroke-dasharray="0 0" style=""></path></g></g><g class="node default" id="classId-SwapRequestDecisionRequest-12" transform="translate(646.2211151123047, 1036.200008392334)"><g class="basic label-container"><path d="M-124.21172332763672 -40.80000019073486 L124.21172332763672 -40.80000019073486 L124.21172332763672 40.80000019073486 L-124.21172332763672 40.80000019073486" stroke="none" stroke-width="0" fill="rgba(255, 255, 255, 0.96)" style=""></path><path d="M-124.21172332763672 -40.80000019073486 C-56.96593944999273 -40.80000019073486, 10.279844427651256 -40.80000019073486, 124.21172332763672 -40.80000019073486 M-124.21172332763672 -40.80000019073486 C-50.53339972997654 -40.80000019073486, 23.144923867683644 -40.80000019073486, 124.21172332763672 -40.80000019073486 M124.21172332763672 -40.80000019073486 C124.21172332763672 -22.516674669042388, 124.21172332763672 -4.233349147349912, 124.21172332763672 40.80000019073486 M124.21172332763672 -40.80000019073486 C124.21172332763672 -20.872356798599725, 124.21172332763672 -0.9447134064645866, 124.21172332763672 40.80000019073486 M124.21172332763672 40.80000019073486 C48.979419612885934 40.80000019073486, -26.25288410186485 40.80000019073486, -124.21172332763672 40.80000019073486 M124.21172332763672 40.80000019073486 C50.130300423391006 40.80000019073486, -23.951122480854707 40.80000019073486, -124.21172332763672 40.80000019073486 M-124.21172332763672 40.80000019073486 C-124.21172332763672 22.393664858637678, -124.21172332763672 3.987329526540492, -124.21172332763672 -40.80000019073486 M-124.21172332763672 40.80000019073486 C-124.21172332763672 13.22191269149868, -124.21172332763672 -14.356174807737503, -124.21172332763672 -40.80000019073486" stroke="rgba(26, 28, 31, 0.118)" stroke-width="1.3" fill="none" stroke-dasharray="0 0" style=""></path></g><g class="annotation-group text" transform="translate(0, -20.800000190734863)"></g><g class="label-group text" transform="translate(-112.21172332763672, -20.800000190734863)"><g class="label" style="font-weight: bolder" transform="translate(0,-10.800000190734863)"><g><rect class="background" style="stroke: none"></rect><text y="-10.1" style=""><tspan class="text-outer-tspan" x="0" y="-0.1em" dy="1.1em" font-weight=""><tspan font-style="normal" class="text-inner-tspan" font-weight="">SwapRequestDecisionRequest</tspan></tspan></text></g></g></g><g class="members-group text" transform="translate(-112.21172332763672, 24.800000190734863)"></g><g class="methods-group text" transform="translate(-112.21172332763672, 54.80000019073486)"></g><g class="divider" style=""><path d="M-124.21172332763672 4.800000190734863 C-46.77539732867501 4.800000190734863, 30.660928670286694 4.800000190734863, 124.21172332763672 4.800000190734863 M-124.21172332763672 4.800000190734863 C-74.0397743136269 4.800000190734863, -23.86782529961711 4.800000190734863, 124.21172332763672 4.800000190734863" stroke="rgba(26, 28, 31, 0.118)" stroke-width="1.3" fill="none" stroke-dasharray="0 0" style=""></path></g><g class="divider" style=""><path d="M-124.21172332763672 22.800000190734863 C-40.08119709075976 22.800000190734863, 44.0493291461172 22.800000190734863, 124.21172332763672 22.800000190734863 M-124.21172332763672 22.800000190734863 C-40.157670935891844 22.800000190734863, 43.89638145585303 22.800000190734863, 124.21172332763672 22.800000190734863" stroke="rgba(26, 28, 31, 0.118)" stroke-width="1.3" fill="none" stroke-dasharray="0 0" style=""></path></g></g><g class="node default" id="classId-SwapRequestDecisionCommand-13" transform="translate(1412.1258239746094, 888.1000118255615)"><g class="basic label-container"><path d="M-132.65625 -40.80000019073486 L132.65625 -40.80000019073486 L132.65625 40.80000019073486 L-132.65625 40.80000019073486" stroke="none" stroke-width="0" fill="rgba(255, 255, 255, 0.96)" style=""></path><path d="M-132.65625 -40.80000019073486 C-77.60834912870308 -40.80000019073486, -22.56044825740618 -40.80000019073486, 132.65625 -40.80000019073486 M-132.65625 -40.80000019073486 C-52.84309593267113 -40.80000019073486, 26.970058134657734 -40.80000019073486, 132.65625 -40.80000019073486 M132.65625 -40.80000019073486 C132.65625 -16.008422007547534, 132.65625 8.783156175639796, 132.65625 40.80000019073486 M132.65625 -40.80000019073486 C132.65625 -9.404374168612613, 132.65625 21.991251853509638, 132.65625 40.80000019073486 M132.65625 40.80000019073486 C66.04158620786926 40.80000019073486, -0.5730775842614833 40.80000019073486, -132.65625 40.80000019073486 M132.65625 40.80000019073486 C65.61537718281315 40.80000019073486, -1.4254956343737035 40.80000019073486, -132.65625 40.80000019073486 M-132.65625 40.80000019073486 C-132.65625 10.205864571582325, -132.65625 -20.388271047570214, -132.65625 -40.80000019073486 M-132.65625 40.80000019073486 C-132.65625 14.746975182962306, -132.65625 -11.306049824810252, -132.65625 -40.80000019073486" stroke="rgba(26, 28, 31, 0.118)" stroke-width="1.3" fill="none" stroke-dasharray="0 0" style=""></path></g><g class="annotation-group text" transform="translate(0, -20.800000190734863)"></g><g class="label-group text" transform="translate(-120.65625, -20.800000190734863)"><g class="label" style="font-weight: bolder" transform="translate(0,-10.800000190734863)"><g><rect class="background" style="stroke: none"></rect><text y="-10.1" style=""><tspan class="text-outer-tspan" x="0" y="-0.1em" dy="1.1em" font-weight=""><tspan font-style="normal" class="text-inner-tspan" font-weight="">SwapRequestDecisionCommand</tspan></tspan></text></g></g></g><g class="members-group text" transform="translate(-120.65625, 24.800000190734863)"></g><g class="methods-group text" transform="translate(-120.65625, 54.80000019073486)"></g><g class="divider" style=""><path d="M-132.65625 4.800000190734863 C-39.56877727944536 4.800000190734863, 53.51869544110929 4.800000190734863, 132.65625 4.800000190734863 M-132.65625 4.800000190734863 C-79.48072370079426 4.800000190734863, -26.305197401588515 4.800000190734863, 132.65625 4.800000190734863" stroke="rgba(26, 28, 31, 0.118)" stroke-width="1.3" fill="none" stroke-dasharray="0 0" style=""></path></g><g class="divider" style=""><path d="M-132.65625 22.800000190734863 C-39.982059394037265 22.800000190734863, 52.69213121192547 22.800000190734863, 132.65625 22.800000190734863 M-132.65625 22.800000190734863 C-57.31149855451008 22.800000190734863, 18.03325289097984 22.800000190734863, 132.65625 22.800000190734863" stroke="rgba(26, 28, 31, 0.118)" stroke-width="1.3" fill="none" stroke-dasharray="0 0" style=""></path></g></g><g class="node default" id="classId-ApiError-14" transform="translate(646.2211151123047, 1273.500005722046)"><g class="basic label-container"><path d="M-43.54375076293945 -40.80000019073486 L43.54375076293945 -40.80000019073486 L43.54375076293945 40.80000019073486 L-43.54375076293945 40.80000019073486" stroke="none" stroke-width="0" fill="rgba(255, 255, 255, 0.96)" style=""></path><path d="M-43.54375076293945 -40.80000019073486 C-9.638776155040624 -40.80000019073486, 24.266198452858205 -40.80000019073486, 43.54375076293945 -40.80000019073486 M-43.54375076293945 -40.80000019073486 C-18.71149418108962 -40.80000019073486, 6.1207624007602135 -40.80000019073486, 43.54375076293945 -40.80000019073486 M43.54375076293945 -40.80000019073486 C43.54375076293945 -23.552541634141015, 43.54375076293945 -6.305083077547167, 43.54375076293945 40.80000019073486 M43.54375076293945 -40.80000019073486 C43.54375076293945 -9.008699725892214, 43.54375076293945 22.782600738950435, 43.54375076293945 40.80000019073486 M43.54375076293945 40.80000019073486 C9.766352326806576 40.80000019073486, -24.0110461093263 40.80000019073486, -43.54375076293945 40.80000019073486 M43.54375076293945 40.80000019073486 C20.57805721906349 40.80000019073486, -2.387636324812476 40.80000019073486, -43.54375076293945 40.80000019073486 M-43.54375076293945 40.80000019073486 C-43.54375076293945 17.59723054944241, -43.54375076293945 -5.605539091850041, -43.54375076293945 -40.80000019073486 M-43.54375076293945 40.80000019073486 C-43.54375076293945 18.451894804837224, -43.54375076293945 -3.8962105810604157, -43.54375076293945 -40.80000019073486" stroke="rgba(26, 28, 31, 0.118)" stroke-width="1.3" fill="none" stroke-dasharray="0 0" style=""></path></g><g class="annotation-group text" transform="translate(0, -20.800000190734863)"></g><g class="label-group text" transform="translate(-31.543750762939453, -20.800000190734863)"><g class="label" style="font-weight: bolder" transform="translate(0,-10.800000190734863)"><g><rect class="background" style="stroke: none"></rect><text y="-10.1" style=""><tspan class="text-outer-tspan" x="0" y="-0.1em" dy="1.1em" font-weight=""><tspan font-style="normal" class="text-inner-tspan" font-weight="">ApiError</tspan></tspan></text></g></g></g><g class="members-group text" transform="translate(-31.543750762939453, 24.800000190734863)"></g><g class="methods-group text" transform="translate(-31.543750762939453, 54.80000019073486)"></g><g class="divider" style=""><path d="M-43.54375076293945 4.800000190734863 C-17.221688502035743 4.800000190734863, 9.100373758867967 4.800000190734863, 43.54375076293945 4.800000190734863 M-43.54375076293945 4.800000190734863 C-16.945831381923163 4.800000190734863, 9.652087999093126 4.800000190734863, 43.54375076293945 4.800000190734863" stroke="rgba(26, 28, 31, 0.118)" stroke-width="1.3" fill="none" stroke-dasharray="0 0" style=""></path></g><g class="divider" style=""><path d="M-43.54375076293945 22.800000190734863 C-15.930350917676364 22.800000190734863, 11.683048927586725 22.800000190734863, 43.54375076293945 22.800000190734863 M-43.54375076293945 22.800000190734863 C-17.678850616712918 22.800000190734863, 8.186049529513618 22.800000190734863, 43.54375076293945 22.800000190734863" stroke="rgba(26, 28, 31, 0.118)" stroke-width="1.3" fill="none" stroke-dasharray="0 0" style=""></path></g></g><g class="node default" id="classId-GlobalExceptionHandler-15" transform="translate(216.07383728027344, 1273.500005722046)"><g class="basic label-container"><path d="M-103.12578582763672 -40.80000019073486 L103.12578582763672 -40.80000019073486 L103.12578582763672 40.80000019073486 L-103.12578582763672 40.80000019073486" stroke="none" stroke-width="0" fill="rgba(255, 255, 255, 0.96)" style=""></path><path d="M-103.12578582763672 -40.80000019073486 C-30.624047286493337 -40.80000019073486, 41.877691254650045 -40.80000019073486, 103.12578582763672 -40.80000019073486 M-103.12578582763672 -40.80000019073486 C-25.074420370848614 -40.80000019073486, 52.97694508593949 -40.80000019073486, 103.12578582763672 -40.80000019073486 M103.12578582763672 -40.80000019073486 C103.12578582763672 -15.935118922718772, 103.12578582763672 8.92976234529732, 103.12578582763672 40.80000019073486 M103.12578582763672 -40.80000019073486 C103.12578582763672 -12.266447477464787, 103.12578582763672 16.26710523580529, 103.12578582763672 40.80000019073486 M103.12578582763672 40.80000019073486 C60.67352505818651 40.80000019073486, 18.221264288736307 40.80000019073486, -103.12578582763672 40.80000019073486 M103.12578582763672 40.80000019073486 C58.25607094002651 40.80000019073486, 13.386356052416303 40.80000019073486, -103.12578582763672 40.80000019073486 M-103.12578582763672 40.80000019073486 C-103.12578582763672 18.01121494803466, -103.12578582763672 -4.777570294665544, -103.12578582763672 -40.80000019073486 M-103.12578582763672 40.80000019073486 C-103.12578582763672 13.556029770962795, -103.12578582763672 -13.687940648809274, -103.12578582763672 -40.80000019073486" stroke="rgba(26, 28, 31, 0.118)" stroke-width="1.3" fill="none" stroke-dasharray="0 0" style=""></path></g><g class="annotation-group text" transform="translate(0, -20.800000190734863)"></g><g class="label-group text" transform="translate(-91.12578582763672, -20.800000190734863)"><g class="label" style="font-weight: bolder" transform="translate(0,-10.800000190734863)"><g><rect class="background" style="stroke: none"></rect><text y="-10.1" style=""><tspan class="text-outer-tspan" x="0" y="-0.1em" dy="1.1em" font-weight=""><tspan font-style="normal" class="text-inner-tspan" font-weight="">GlobalExceptionHandler</tspan></tspan></text></g></g></g><g class="members-group text" transform="translate(-91.12578582763672, 24.800000190734863)"></g><g class="methods-group text" transform="translate(-91.12578582763672, 54.80000019073486)"></g><g class="divider" style=""><path d="M-103.12578582763672 4.800000190734863 C-56.85807633126549 4.800000190734863, -10.590366834894255 4.800000190734863, 103.12578582763672 4.800000190734863 M-103.12578582763672 4.800000190734863 C-38.374445190413326 4.800000190734863, 26.376895446810067 4.800000190734863, 103.12578582763672 4.800000190734863" stroke="rgba(26, 28, 31, 0.118)" stroke-width="1.3" fill="none" stroke-dasharray="0 0" style=""></path></g><g class="divider" style=""><path d="M-103.12578582763672 22.800000190734863 C-22.636590594521124 22.800000190734863, 57.85260463859447 22.800000190734863, 103.12578582763672 22.800000190734863 M-103.12578582763672 22.800000190734863 C-34.46711991264874 22.800000190734863, 34.19154600233924 22.800000190734863, 103.12578582763672 22.800000190734863" stroke="rgba(26, 28, 31, 0.118)" stroke-width="1.3" fill="none" stroke-dasharray="0 0" style=""></path></g></g></g></g></g></svg>